<svg width="18" height="15" viewBox="0 0 18 15" fill="none" xmlns="http://www.w3.org/2000/svg">
<path d="M18 1.77734C17.3248 2.08295 16.6104 2.28429 15.8794 2.375C16.6476 1.9064 17.2254 1.16194 17.5043 0.281256C16.7779 0.723673 15.9846 1.03409 15.1583 1.19922C14.8103 0.819352 14.3918 0.517155 13.9282 0.311C13.4647 0.104844 12.9657 -0.000963797 12.4616 6.61499e-06C10.4209 6.61499e-06 8.76938 1.69531 8.76938 3.78515C8.76793 4.07584 8.79991 4.36566 8.86463 4.64843C7.40126 4.57697 5.96832 4.18811 4.65749 3.50674C3.34666 2.82536 2.18681 1.86647 1.25213 0.691411C0.924216 1.26724 0.7508 1.92424 0.75 2.59375C0.75 3.90624 1.40738 5.0664 2.4 5.74608C1.8119 5.73154 1.23585 5.5694 0.72075 5.27343V5.3203C0.72075 7.15623 1.99575 8.68357 3.68325 9.03123C3.36592 9.11935 3.03891 9.16399 2.7105 9.16404C2.47747 9.16446 2.24496 9.14091 2.01637 9.09373C2.4855 10.5976 3.85088 11.6914 5.46825 11.7226C4.15402 12.7777 2.54048 13.3479 0.88125 13.3437C0.586732 13.3433 0.292487 13.325 0 13.289C1.68794 14.4118 3.65004 15.0056 5.65275 15C12.4538 15 16.1693 9.23045 16.1693 4.22656C16.1693 4.06249 16.1651 3.89843 16.1576 3.73828C16.8788 3.20393 17.5027 2.53989 18 1.77734Z" fill="white"/>
</svg>
