<svg width="18" height="13" viewBox="0 0 18 13" fill="none" xmlns="http://www.w3.org/2000/svg">
<path d="M9.05794 0H9.15807C10.0829 0.00347006 14.7688 0.0381709 16.0323 0.38749C16.4142 0.4941 16.7623 0.701903 17.0416 0.990133C17.321 1.27836 17.5219 1.63692 17.6242 2.02998C17.7379 2.46953 17.8177 3.05134 17.8717 3.65166L17.883 3.77196L17.9077 4.07269L17.9167 4.19299C17.9899 5.2502 17.9989 6.24032 18 6.45662V6.54338C17.9989 6.76777 17.9887 7.82498 17.9077 8.92615L17.8987 9.0476L17.8886 9.1679C17.8324 9.82952 17.7491 10.4865 17.6242 10.97C17.5222 11.3632 17.3214 11.722 17.042 12.0102C16.7626 12.2985 16.4144 12.5062 16.0323 12.6125C14.7272 12.9734 9.76674 12.9988 9.07932 13H8.91956C8.57191 13 7.13407 12.9931 5.62648 12.9399L5.43521 12.9329L5.33733 12.9283L5.14495 12.9202L4.95256 12.9121C3.70373 12.8554 2.51453 12.764 1.96662 12.6114C1.58465 12.5052 1.23653 12.2976 0.957125 12.0096C0.677724 11.7215 0.476857 11.363 0.374648 10.97C0.249766 10.4877 0.16651 9.82952 0.110257 9.1679L0.101256 9.04645L0.0922558 8.92615C0.0367308 8.14238 0.00596272 7.35696 0 6.57114L0 6.42886C0.00225014 6.18018 0.0112507 5.32076 0.0720045 4.37227L0.07988 4.25314L0.0832552 4.19299L0.0922558 4.07269L0.117007 3.77196L0.128258 3.65166C0.182261 3.05134 0.262141 2.46837 0.375773 2.02998C0.47781 1.63677 0.6786 1.27804 0.958012 0.989756C1.23742 0.701477 1.58564 0.493781 1.96775 0.38749C2.51566 0.237121 3.70486 0.144586 4.95368 0.0867514L5.14495 0.0786546L5.33846 0.0717147L5.43521 0.0682447L5.6276 0.0601479C6.69834 0.0247239 7.76952 0.00505803 8.8408 0.00115674H9.05794V0ZM7.20045 3.71296V9.28588L11.8774 6.50058L7.20045 3.71296Z" fill="white"/>
</svg>
