<svg width="16" height="15" viewBox="0 0 16 15" fill="none" xmlns="http://www.w3.org/2000/svg">
<path d="M11.024 15V9.195H13.0978L13.408 6.93833H11.024V5.49833C11.024 4.845 11.2178 4.39917 12.2169 4.39917H13.4916V2.38083C12.8745 2.31945 12.2543 2.28969 11.6338 2.29167C9.79644 2.29167 8.53867 3.34333 8.53867 5.275V6.93833H6.46044V9.195H8.53867V15H0.888889C0.653141 15 0.427048 14.9122 0.260349 14.7559C0.0936505 14.5996 0 14.3877 0 14.1667V0.833333C0 0.61232 0.0936505 0.400358 0.260349 0.244078C0.427048 0.0877973 0.653141 0 0.888889 0H15.1111C15.3469 0 15.573 0.0877973 15.7397 0.244078C15.9064 0.400358 16 0.61232 16 0.833333V14.1667C16 14.3877 15.9064 14.5996 15.7397 14.7559C15.573 14.9122 15.3469 15 15.1111 15H11.024Z" fill="white"/>
</svg>
