<svg width="190" height="59" viewBox="0 0 190 59" fill="none" xmlns="http://www.w3.org/2000/svg">
<g filter="url(#filter0_d_4_83)">
<rect x="5" y="2" width="180" height="49" rx="24.5" fill="url(#paint0_linear_4_83)"/>
<rect x="6" y="3" width="178" height="47" rx="23.5" stroke="black" stroke-opacity="0.21" stroke-width="2"/>
</g>
<path d="M76.4716 23.5625C76.4186 23.0663 76.1951 22.6799 75.8011 22.4034C75.411 22.1269 74.9034 21.9886 74.2784 21.9886C73.839 21.9886 73.4621 22.0549 73.1477 22.1875C72.8333 22.3201 72.5928 22.5 72.4261 22.7273C72.2595 22.9545 72.1742 23.214 72.1705 23.5057C72.1705 23.7481 72.2254 23.9583 72.3352 24.1364C72.4489 24.3144 72.6023 24.4659 72.7955 24.5909C72.9886 24.7121 73.2027 24.8144 73.4375 24.8977C73.6723 24.9811 73.9091 25.0511 74.1477 25.108L75.2386 25.3807C75.678 25.483 76.1004 25.6212 76.5057 25.7955C76.9148 25.9697 77.2803 26.1894 77.6023 26.4545C77.928 26.7197 78.1856 27.0398 78.375 27.4148C78.5644 27.7898 78.6591 28.2292 78.6591 28.733C78.6591 29.4148 78.4848 30.0152 78.1364 30.5341C77.7879 31.0492 77.2841 31.4527 76.625 31.7443C75.9697 32.0322 75.1761 32.1761 74.2443 32.1761C73.339 32.1761 72.553 32.036 71.8864 31.7557C71.2235 31.4754 70.7045 31.0663 70.3295 30.5284C69.9583 29.9905 69.7576 29.3352 69.7273 28.5625H71.8011C71.8314 28.9678 71.9564 29.3049 72.1761 29.5739C72.3958 29.8428 72.6818 30.0436 73.0341 30.1761C73.3902 30.3087 73.7879 30.375 74.2273 30.375C74.6856 30.375 75.0871 30.3068 75.4318 30.1705C75.7803 30.0303 76.053 29.8371 76.25 29.5909C76.447 29.3409 76.5473 29.0492 76.5511 28.7159C76.5473 28.4129 76.4583 28.1629 76.2841 27.9659C76.1098 27.7652 75.8655 27.5985 75.5511 27.4659C75.2405 27.3295 74.8769 27.2083 74.4602 27.1023L73.1364 26.7614C72.178 26.5152 71.4205 26.142 70.8636 25.642C70.3106 25.1383 70.0341 24.4697 70.0341 23.6364C70.0341 22.9508 70.2197 22.3504 70.5909 21.8352C70.9659 21.3201 71.4754 20.9205 72.1193 20.6364C72.7633 20.3485 73.4924 20.2045 74.3068 20.2045C75.1326 20.2045 75.8561 20.3485 76.4773 20.6364C77.1023 20.9205 77.5928 21.3163 77.9489 21.8239C78.3049 22.3277 78.4886 22.9072 78.5 23.5625H76.4716ZM80.4474 32V23.2727H82.5043V32H80.4474ZM81.4815 22.0341C81.1558 22.0341 80.8755 21.9261 80.6406 21.7102C80.4058 21.4905 80.2884 21.2273 80.2884 20.9205C80.2884 20.6098 80.4058 20.3466 80.6406 20.1307C80.8755 19.911 81.1558 19.8011 81.4815 19.8011C81.8111 19.8011 82.0914 19.911 82.3224 20.1307C82.5573 20.3466 82.6747 20.6098 82.6747 20.9205C82.6747 21.2273 82.5573 21.4905 82.3224 21.7102C82.0914 21.9261 81.8111 22.0341 81.4815 22.0341ZM88.4148 35.4545C87.6761 35.4545 87.0417 35.3542 86.5114 35.1534C85.9811 34.9564 85.5549 34.6913 85.233 34.358C84.911 34.0246 84.6875 33.6553 84.5625 33.25L86.4148 32.8011C86.4981 32.9716 86.6193 33.1402 86.7784 33.3068C86.9375 33.4773 87.1515 33.6174 87.4205 33.7273C87.6932 33.8409 88.036 33.8977 88.4489 33.8977C89.0322 33.8977 89.5152 33.7557 89.8977 33.4716C90.2803 33.1913 90.4716 32.7292 90.4716 32.0852V30.4318H90.3693C90.2633 30.6439 90.108 30.8617 89.9034 31.0852C89.7027 31.3087 89.4356 31.4962 89.1023 31.6477C88.7727 31.7992 88.358 31.875 87.858 31.875C87.1875 31.875 86.5795 31.7178 86.0341 31.4034C85.4924 31.0852 85.0606 30.6117 84.7386 29.983C84.4205 29.3504 84.2614 28.5587 84.2614 27.608C84.2614 26.6496 84.4205 25.8409 84.7386 25.1818C85.0606 24.5189 85.4943 24.017 86.0398 23.6761C86.5852 23.3314 87.1932 23.1591 87.8636 23.1591C88.375 23.1591 88.7955 23.2462 89.125 23.4205C89.4583 23.5909 89.7235 23.7973 89.9205 24.0398C90.1174 24.2784 90.267 24.5038 90.3693 24.7159H90.483V23.2727H92.5114V32.142C92.5114 32.8883 92.3333 33.5057 91.9773 33.9943C91.6212 34.483 91.1345 34.8485 90.517 35.0909C89.8996 35.3333 89.1989 35.4545 88.4148 35.4545ZM88.4318 30.2614C88.8674 30.2614 89.2386 30.1553 89.5455 29.9432C89.8523 29.7311 90.0852 29.4261 90.2443 29.0284C90.4034 28.6307 90.483 28.1534 90.483 27.5966C90.483 27.0473 90.4034 26.5663 90.2443 26.1534C90.089 25.7405 89.858 25.4205 89.5511 25.1932C89.2481 24.9621 88.875 24.8466 88.4318 24.8466C87.9735 24.8466 87.5909 24.9659 87.2841 25.2045C86.9773 25.4432 86.7462 25.7708 86.5909 26.1875C86.4356 26.6004 86.358 27.0701 86.358 27.5966C86.358 28.1307 86.4356 28.5985 86.5909 29C86.75 29.3977 86.983 29.7083 87.2898 29.9318C87.6004 30.1515 87.9811 30.2614 88.4318 30.2614ZM96.6761 26.8864V32H94.6193V23.2727H96.5852V24.7557H96.6875C96.8883 24.267 97.2083 23.8788 97.6477 23.5909C98.0909 23.303 98.6383 23.1591 99.2898 23.1591C99.892 23.1591 100.417 23.2879 100.864 23.5455C101.314 23.803 101.663 24.1761 101.909 24.6648C102.159 25.1534 102.282 25.7462 102.278 26.4432V32H100.222V26.7614C100.222 26.178 100.07 25.7216 99.767 25.392C99.4678 25.0625 99.053 24.8977 98.5227 24.8977C98.1629 24.8977 97.8428 24.9773 97.5625 25.1364C97.286 25.2917 97.0682 25.517 96.9091 25.8125C96.7538 26.108 96.6761 26.4659 96.6761 26.8864ZM110.537 20.3636V32H108.429V20.3636H110.537ZM114.786 26.8864V32H112.729V23.2727H114.695V24.7557H114.797C114.998 24.267 115.318 23.8788 115.757 23.5909C116.2 23.303 116.748 23.1591 117.399 23.1591C118.001 23.1591 118.526 23.2879 118.973 23.5455C119.424 23.803 119.772 24.1761 120.018 24.6648C120.268 25.1534 120.392 25.7462 120.388 26.4432V32H118.331V26.7614C118.331 26.178 118.179 25.7216 117.876 25.392C117.577 25.0625 117.162 24.8977 116.632 24.8977C116.272 24.8977 115.952 24.9773 115.672 25.1364C115.395 25.2917 115.178 25.517 115.018 25.8125C114.863 26.108 114.786 26.4659 114.786 26.8864Z" fill="white"/>
<defs>
<filter id="filter0_d_4_83" x="0" y="0" width="190" height="59" filterUnits="userSpaceOnUse" color-interpolation-filters="sRGB">
<feFlood flood-opacity="0" result="BackgroundImageFix"/>
<feColorMatrix in="SourceAlpha" type="matrix" values="0 0 0 0 0 0 0 0 0 0 0 0 0 0 0 0 0 0 127 0" result="hardAlpha"/>
<feOffset dy="3"/>
<feGaussianBlur stdDeviation="2.5"/>
<feComposite in2="hardAlpha" operator="out"/>
<feColorMatrix type="matrix" values="0 0 0 0 0.275 0 0 0 0 0 0 0 0 0 0.0328804 0 0 0 1 0"/>
<feBlend mode="normal" in2="BackgroundImageFix" result="effect1_dropShadow_4_83"/>
<feBlend mode="normal" in="SourceGraphic" in2="effect1_dropShadow_4_83" result="shape"/>
</filter>
<linearGradient id="paint0_linear_4_83" x1="84" y1="-11.1047" x2="121.544" y2="75.6542" gradientUnits="userSpaceOnUse">
<stop offset="0.0179064" stop-color="#D31027"/>
<stop offset="1" stop-color="#EA384D"/>
</linearGradient>
</defs>
</svg>
