<svg width="55" height="55" viewBox="0 0 55 55" fill="none" xmlns="http://www.w3.org/2000/svg">
<g clip-path="url(#clip0_2_6)">
<path d="M6.03098 34.8178L4.17576 35.5393C1.39293 36.7246 -0.0500172 37.9614 0.00151667 39.0436C0.156118 40.6411 1.9598 41.8264 5.25797 42.7025C9.53528 43.8362 13.8641 44.0939 18.3476 43.424V38.9405L14.7917 40.2804C11.0813 41.5687 9.17454 40.4865 9.17454 40.4865C8.60767 40.1258 8.35 39.2497 9.89601 38.6829L11.8543 37.9614L18.3476 35.6424V30.4374L16.6985 31.0043L6.03098 34.8178Z" fill="url(#paint0_linear_2_6)"/>
<path d="M33.1378 16.7294V30.0767C35.9206 31.4166 38.3942 31.5196 40.2494 30.1282C42.1562 28.7883 43.1869 26.4693 43.1869 22.965C43.1869 19.3061 42.4654 16.5233 40.8679 14.6681C39.4249 12.7098 36.8482 11.0607 33.0347 9.77236C28.2936 8.22634 24.274 6.88646 21.0789 6.21652V46.1552L29.685 48.7835V15.5957C29.6335 13.5859 33.1378 13.7405 33.1378 16.7294Z" fill="url(#paint1_linear_2_6)"/>
<path d="M54.9881 37.343C54.9366 35.9516 53.2875 34.8694 50.3501 33.8902C47.0519 32.808 44.2175 32.2927 41.1255 32.3957C38.2912 32.4473 34.8899 33.3749 31.8494 34.354V39.4559L40.1979 36.5184C40.1979 36.5184 42.7231 35.5908 44.8875 36.1577C46.5366 36.57 46.4335 37.4976 44.7844 38.0644L42.8777 38.8375L31.8494 42.8056V48.0105L37.0028 46.1553L49.3709 41.7749L50.8139 41.1049C53.8028 40.0227 55.1427 38.8375 54.9881 37.343Z" fill="url(#paint2_linear_2_6)"/>
</g>
<defs>
<linearGradient id="paint0_linear_2_6" x1="8.05264" y1="26.8666" x2="21.9389" y2="38.8704" gradientUnits="userSpaceOnUse">
<stop offset="0.0179064" stop-color="#D31027"/>
<stop offset="1" stop-color="#EA384D"/>
</linearGradient>
<linearGradient id="paint1_linear_2_6" x1="30.7818" y1="-5.16766" x2="57.1978" y2="3.46303" gradientUnits="userSpaceOnUse">
<stop offset="0.0179064" stop-color="#D31027"/>
<stop offset="1" stop-color="#EA384D"/>
</linearGradient>
<linearGradient id="paint2_linear_2_6" x1="42.01" y1="28.2033" x2="58.3951" y2="43.4726" gradientUnits="userSpaceOnUse">
<stop offset="0.0179064" stop-color="#D31027"/>
<stop offset="1" stop-color="#EA384D"/>
</linearGradient>
<clipPath id="clip0_2_6">
<rect width="55" height="55" fill="white"/>
</clipPath>
</defs>
</svg>
