<svg width="90" height="101" viewBox="0 0 90 101" fill="none" xmlns="http://www.w3.org/2000/svg">
<path d="M25.7568 13.5644C26.2549 14.221 26.5719 14.9454 26.7077 15.7379C26.8436 16.5303 26.8775 17.2887 26.8096 18.0132C26.7417 19.7792 26.5492 21.2055 26.2323 22.2922C25.9153 23.379 25.5531 24.0016 25.1455 24.1601C24.738 24.2959 24.3871 24.3752 24.0928 24.3978C23.5041 24.4884 23.0966 24.6808 22.8702 24.9751C22.6438 25.2921 22.4853 25.7223 22.3947 26.2656C22.3495 26.4694 22.2929 26.6618 22.2249 26.843C22.157 27.0467 22.0099 27.1712 21.7834 27.2165C21.557 27.2618 21.3646 27.1826 21.2061 26.9788C21.0703 26.7977 20.9231 26.5826 20.7646 26.3336C20.6514 26.1524 20.5269 25.96 20.3911 25.7562C20.2552 25.5525 20.1307 25.4506 20.0175 25.4506C19.9722 25.4506 19.9043 25.5072 19.8137 25.6204C19.7232 25.6883 19.6213 25.7562 19.5081 25.8241C19.3949 25.9147 19.2477 25.9713 19.0666 25.9939C18.7949 25.9939 18.5685 25.9147 18.3874 25.7562C18.2289 25.6204 18.0817 25.4619 17.9459 25.2808C17.8327 25.1676 17.7308 25.0544 17.6403 24.9412C17.5497 24.828 17.4478 24.7487 17.3346 24.7034C17.2214 24.7261 17.1082 24.7374 16.995 24.7374C16.8818 24.7374 16.7686 24.7374 16.6554 24.7374C16.3611 24.8506 16.1573 24.9864 16.0441 25.1449C15.9988 25.2129 15.9649 25.3374 15.9422 25.5185C15.9422 25.7223 15.9422 25.9487 15.9422 26.1977C15.9649 26.4694 15.9875 26.7411 16.0102 27.0128C16.0328 27.3071 16.0554 27.5788 16.0781 27.8278C16.1234 28.3259 16.1686 28.824 16.2139 29.3221C16.2592 29.8202 16.2705 30.273 16.2479 30.6805C16.2252 31.1107 16.1686 31.4956 16.0781 31.8352C16.0102 32.1748 15.8743 32.4238 15.6705 32.5823C15.4894 32.7634 15.2743 32.854 15.0253 32.854H14.9574L14.8555 32.82H14.7876C14.4253 32.7521 14.1536 32.571 13.9725 32.2766C13.814 32.005 13.7008 31.6654 13.6329 31.2578C13.5876 30.8729 13.5763 30.4428 13.599 29.9673C13.6216 29.4919 13.6556 29.0164 13.7008 28.541C13.7461 28.0882 13.7688 27.6127 13.7688 27.1146C13.7914 26.6392 13.7461 26.3336 13.6329 26.1977C13.4971 26.0166 13.3952 25.926 13.3273 25.926C13.3046 25.9487 13.282 25.9713 13.2593 25.9939C13.2593 26.0392 13.248 26.0845 13.2254 26.1298C13.1801 26.243 13.1122 26.3562 13.0216 26.4694C12.9311 26.5826 12.7952 26.6618 12.6141 26.7071C12.433 26.7524 12.2745 26.7411 12.1386 26.6732C12.0028 26.6052 11.8783 26.526 11.7651 26.4354C11.7198 26.3902 11.6745 26.3449 11.6292 26.2996C11.584 26.277 11.5387 26.277 11.4934 26.2996C11.4481 26.2996 11.3689 26.3675 11.2557 26.5034C11.2104 26.5713 11.1425 26.6505 11.0519 26.7411C10.984 26.8316 10.8821 26.8769 10.7463 26.8769C10.5425 26.8769 10.3501 26.7184 10.1689 26.4015C10.0105 26.1071 9.86329 25.7109 9.72745 25.2129C9.59161 24.7374 9.47841 24.2054 9.38784 23.6167C9.31992 23.0054 9.27464 22.4054 9.252 21.8168C9.20672 21.3187 9.18408 20.6508 9.18408 19.8131C9.18408 18.9528 9.1954 17.8434 9.21804 16.485C9.24068 15.3077 9.252 14.0511 9.252 12.7154C9.27464 11.3796 9.252 10.1004 9.18408 8.87782C9.1388 7.65524 9.03692 6.55718 8.87844 5.58365C8.71995 4.58747 8.48223 3.84034 8.16526 3.34225C7.87094 2.95737 7.85962 2.57248 8.1313 2.18759C8.31243 1.93855 8.60675 1.71214 9.01428 1.50838C9.44444 1.30462 9.95385 1.13481 10.5425 0.998972C11.1312 0.86313 11.7877 0.761248 12.5122 0.693326C13.2367 0.602766 13.9952 0.557486 14.7876 0.557486C15.5121 0.557486 16.2932 0.602766 17.1309 0.693326C17.9912 0.761248 18.8515 0.885771 19.7119 1.06689C20.5722 1.22538 21.3986 1.45178 22.191 1.7461C22.9834 2.04043 23.6739 2.40268 24.2626 2.83284H24.2965C25.4285 3.6479 26.0964 4.64407 26.3002 5.82137C26.4587 6.79491 26.4247 7.71184 26.1983 8.57218C25.9946 9.40987 25.6323 10.1344 25.1116 10.7457C24.9305 10.9494 24.6927 11.1645 24.3984 11.3909C24.2399 11.5041 24.0814 11.606 23.923 11.6965C23.7871 11.7871 23.6286 11.8664 23.4475 11.9343C23.9003 12.0928 24.3305 12.3078 24.738 12.5795C25.1455 12.8512 25.4851 13.1795 25.7568 13.5644ZM8.77655 2.93472C9.1388 3.47809 9.39916 4.24787 9.55765 5.24404C9.73877 6.24022 9.86329 7.36092 9.93121 8.60614C9.99913 9.85136 10.0218 11.1645 9.99913 12.5456C9.99913 13.904 9.98781 15.2171 9.96517 16.485C9.96517 17.1416 9.95385 17.7981 9.93121 18.4547C9.93121 19.1113 9.93121 19.7226 9.93121 20.2886C9.93121 20.8546 9.94253 21.33 9.96517 21.7149C10.0105 22.0998 10.0671 22.3488 10.135 22.462C10.2255 22.53 10.3614 22.6092 10.5425 22.6998C10.384 22.496 10.2935 21.9526 10.2708 21.0697C10.2482 20.1867 10.2482 19.1226 10.2708 17.8774C10.2935 16.6095 10.3161 15.2398 10.3387 13.7681C10.3614 12.2739 10.3501 10.8362 10.3048 9.45515C10.2595 8.07409 10.1463 6.81755 9.96517 5.68553C9.78405 4.55351 9.51237 3.7045 9.15012 3.13849C8.92372 2.77624 8.99164 2.44796 9.35388 2.15363C9.03692 2.28947 8.83315 2.43664 8.74259 2.59512C8.67467 2.68568 8.68599 2.79888 8.77655 2.93472ZM17.9459 9.52307C17.9459 9.63628 17.9459 9.73816 17.9459 9.82872C17.9459 9.89664 17.9346 9.9872 17.9119 10.1004C18.0478 10.1004 18.2063 10.0778 18.3874 10.0325C18.5685 9.96456 18.7383 9.88532 18.8968 9.79476C19.0779 9.68156 19.2251 9.56835 19.3383 9.45515C19.4515 9.31931 19.5081 9.17215 19.5081 9.01366C19.5081 8.83254 19.3722 8.70802 19.1006 8.6401H19.0666C18.8855 8.59482 18.693 8.57218 18.4893 8.57218C18.2855 8.54954 18.1157 8.54954 17.9799 8.57218V8.67406L17.9459 8.84386V8.94574V9.52307ZM19.0326 14.9568C18.8062 14.8662 18.5685 14.8209 18.3195 14.8209C18.0704 14.7983 17.9006 14.7983 17.8101 14.8209V15.1945C17.8101 15.3303 17.8101 15.4775 17.8101 15.636C17.8101 15.7718 17.8214 15.9077 17.844 16.0435V16.5529C17.9799 16.5303 18.1497 16.5076 18.3534 16.485C18.5572 16.4397 18.7496 16.3831 18.9308 16.3152C19.1119 16.2246 19.259 16.1227 19.3722 16.0095C19.5081 15.8737 19.576 15.7039 19.576 15.5001C19.5534 15.3643 19.4855 15.2511 19.3722 15.1605C19.2817 15.07 19.1685 15.002 19.0326 14.9568ZM24.8739 23.4469C24.9871 23.4016 25.1229 23.2092 25.2814 22.8696C25.4399 22.53 25.587 21.93 25.7229 21.0697C25.338 21.6357 24.8512 22.1224 24.2626 22.53C23.6966 22.9375 23.0853 23.2884 22.4287 23.5827C21.7721 23.8771 21.0929 24.1148 20.3911 24.2959C19.6892 24.4544 19.01 24.5676 18.3534 24.6355C18.3987 24.6582 18.4214 24.6808 18.4214 24.7034C18.444 24.7261 18.478 24.76 18.5232 24.8053C18.7496 25.0997 18.9194 25.2468 19.0326 25.2468C19.1006 25.2468 19.1798 25.1902 19.2704 25.077C19.3609 25.0091 19.4628 24.9298 19.576 24.8393C19.6892 24.7714 19.8364 24.7374 20.0175 24.7374C20.3345 24.7374 20.5948 24.8732 20.7986 25.1449C21.025 25.4166 21.2288 25.6883 21.4099 25.96L21.6136 26.2996C21.6363 26.277 21.6476 26.2317 21.6476 26.1637C21.7608 25.4619 21.9985 24.9072 22.3608 24.4997C22.723 24.0695 23.2664 23.7978 23.9909 23.6846C24.2626 23.6393 24.5569 23.5601 24.8739 23.4469ZM15.1951 32.0389C15.3083 31.9257 15.3875 31.7106 15.4328 31.3937C15.4781 31.0993 15.5007 30.7484 15.5007 30.3409C15.5007 29.956 15.4781 29.5372 15.4328 29.0844C15.4102 28.6542 15.3875 28.258 15.3649 27.8957C15.2743 26.9901 15.2177 26.2883 15.1951 25.7902C15.1951 25.2921 15.2857 24.9298 15.4668 24.7034C14.448 24.6582 13.4744 24.5223 12.5462 24.2959C11.6406 24.0469 10.8255 23.7186 10.101 23.3111C10.1689 24.0356 10.2595 24.6129 10.3727 25.043C10.5085 25.4732 10.6331 25.7789 10.7463 25.96C10.8142 25.8921 10.8934 25.8128 10.984 25.7223C11.0746 25.6543 11.1991 25.5977 11.3576 25.5525C11.5387 25.5072 11.6972 25.5298 11.833 25.6204C11.9915 25.7109 12.1273 25.7902 12.2405 25.8581C12.3311 25.9487 12.399 25.9939 12.4443 25.9939C12.4669 25.9939 12.4783 25.9713 12.4783 25.926C12.5009 25.8807 12.5235 25.8355 12.5462 25.7902C12.5915 25.677 12.6594 25.5638 12.7499 25.4506C12.8631 25.3374 13.0103 25.2581 13.1914 25.2129C13.4178 25.1676 13.6216 25.2129 13.8027 25.3487C13.9838 25.4845 14.1197 25.6091 14.2102 25.7223C14.414 25.9713 14.5159 26.3222 14.5159 26.775C14.5159 27.2505 14.4819 27.8505 14.414 28.5749C14.3914 28.9372 14.3687 29.3108 14.3461 29.6956C14.3234 30.1032 14.3234 30.4767 14.3461 30.8163C14.3687 31.156 14.414 31.439 14.4819 31.6654C14.5725 31.9144 14.7197 32.0616 14.9234 32.1068C15.014 32.1068 15.1045 32.0842 15.1951 32.0389ZM46.2385 21.4432C46.4423 21.964 46.4423 22.4168 46.2385 22.8017C46.0347 23.1865 45.7065 23.5148 45.2536 23.7865C44.8008 24.0356 44.2575 24.228 43.6235 24.3638C43.0122 24.477 42.3783 24.5336 41.7217 24.5336C41.0425 24.5336 40.3973 24.4657 39.786 24.3299C39.1747 24.194 38.6766 23.9903 38.2917 23.7186C38.1332 23.6054 37.9974 23.4016 37.8842 23.1073C37.7936 22.7903 37.7144 22.4168 37.6465 21.9866C37.5786 21.5338 37.5106 21.047 37.4427 20.5263C37.3974 20.0056 37.3408 19.4735 37.2729 18.9301C37.1597 18.8849 37.0352 18.8735 36.8993 18.8962C36.7635 18.8962 36.6616 18.9075 36.5937 18.9301C36.5937 19.0886 36.5711 19.3037 36.5258 19.5754C36.5031 19.8471 36.4579 20.164 36.3899 20.5263C36.322 20.8885 36.2428 21.2734 36.1522 21.681C36.0617 22.0658 35.9485 22.462 35.8126 22.8696C35.6315 23.4129 35.1108 23.8318 34.2504 24.1261C33.4127 24.3978 32.4845 24.5336 31.4657 24.5336C30.8544 24.5336 30.2657 24.477 29.6997 24.3638C29.1337 24.2506 28.6469 24.0695 28.2394 23.8205C27.8545 23.5714 27.5828 23.2545 27.4243 22.8696C27.2885 22.4847 27.3338 22.0319 27.5602 21.5112C27.7866 20.9904 28.047 20.232 28.3413 19.2358C28.6582 18.217 28.9639 17.085 29.2582 15.8397C29.5752 14.5719 29.8582 13.2587 30.1072 11.9003C30.3563 10.5192 30.5487 9.21743 30.6846 7.99485C30.8204 6.74963 30.8657 5.65157 30.8204 4.70067C30.7751 3.74978 30.6053 3.07057 30.311 2.66304C30.1978 2.50456 30.2884 2.36871 30.5827 2.25551C30.8996 2.14231 31.3411 2.05175 31.9071 1.98383C32.4732 1.89327 33.141 1.83667 33.9108 1.81403C34.6806 1.76875 35.473 1.7461 36.2881 1.7461C37.1484 1.7461 37.9861 1.76875 38.8011 1.81403C39.6388 1.85931 40.3746 1.92723 41.0086 2.01779C41.6425 2.08571 42.1293 2.17627 42.4689 2.28947C42.8085 2.40268 42.9217 2.53852 42.8085 2.697C42.5142 3.08189 42.3557 3.73846 42.333 4.66671C42.333 5.57233 42.4123 6.6251 42.5708 7.82505C42.7519 9.00234 43.0009 10.2702 43.3179 11.6286C43.6349 12.9644 43.9631 14.2662 44.3027 15.5341C44.665 16.7793 45.0159 17.9227 45.3555 18.9641C45.6951 20.0056 45.9895 20.8319 46.2385 21.4432ZM36.2881 15.8058C36.5371 15.7831 36.7861 15.7718 37.0352 15.7718C37.3069 15.7718 37.5672 15.7718 37.8163 15.7718C37.771 15.5907 37.737 15.4096 37.7144 15.2284C37.6918 15.0473 37.6691 14.8662 37.6465 14.6851L37.239 12.4776C37.2163 12.2965 37.1937 12.1154 37.171 11.9343C37.1484 11.7532 37.1144 11.572 37.0691 11.3909C36.9333 12.1154 36.7975 12.8512 36.6616 13.5983C36.5484 14.3228 36.4239 15.0586 36.2881 15.8058ZM60.1928 15.5001C60.306 15.4322 60.3966 15.3982 60.4645 15.3982C60.6909 15.3982 60.8947 15.5567 61.0758 15.8737C61.2796 16.168 61.4494 16.5529 61.5852 17.0284C61.7211 17.5038 61.8229 18.0359 61.8909 18.6245C61.9588 19.2132 61.9701 19.7905 61.9248 20.3565C61.8795 20.9225 61.7663 21.4432 61.5852 21.9187C61.4041 22.3941 61.1324 22.7677 60.7702 23.0394C60.1136 23.5375 59.2759 23.911 58.2571 24.1601C57.2609 24.3865 56.2308 24.4997 55.1667 24.4997C54.2158 24.4997 53.3215 24.4091 52.4838 24.228C51.6461 24.0242 50.9669 23.7299 50.4462 23.345C49.3368 22.53 48.4538 21.5451 47.7972 20.3905C47.1407 19.2358 46.6765 18.0132 46.4049 16.7227C46.1558 15.4322 46.0879 14.1191 46.2011 12.7833C46.3369 11.4249 46.6426 10.1344 47.118 8.91178C47.5255 7.84769 48.0123 6.88547 48.5783 6.02513C49.1443 5.14216 49.8009 4.38371 50.548 3.74978C51.2952 3.11585 52.1329 2.62908 53.0611 2.28947C53.9894 1.92723 55.0308 1.7461 56.1855 1.7461C56.7741 1.7461 57.3854 1.81403 58.0194 1.94987C58.6533 2.06307 59.2872 2.28947 59.9212 2.62908C60.6004 2.99133 61.1777 3.47809 61.6531 4.08938C62.1286 4.70067 62.5022 5.36856 62.7738 6.09306C63.0455 6.81755 63.204 7.56468 63.2493 8.33445C63.2946 9.08159 63.2153 9.79476 63.0116 10.474C62.8304 11.1305 62.5022 11.7079 62.0267 12.206C61.5739 12.704 60.9739 13.0437 60.2268 13.2248C59.7966 13.338 59.4117 13.4172 59.0721 13.4625C58.7325 13.4851 58.4269 13.4965 58.1552 13.4965C57.5439 13.4965 57.0798 13.4059 56.7628 13.2248C56.4459 13.021 56.2308 12.7833 56.1176 12.5116C56.0044 12.2173 55.9591 11.9003 55.9817 11.5607C56.027 11.2211 56.0836 10.9155 56.1515 10.6438C56.2421 10.3494 56.3213 10.1117 56.3893 9.9306C56.4798 9.74948 56.5025 9.65892 56.4572 9.65892C56.2081 9.7042 55.9478 9.874 55.6761 10.1683C55.4044 10.44 55.1554 10.7909 54.929 11.2211C54.7025 11.6286 54.4988 12.0928 54.3177 12.6135C54.1592 13.1342 54.046 13.6549 53.9781 14.1757C53.9101 14.6738 53.8988 15.1492 53.9441 15.602C54.012 16.0322 54.1705 16.3944 54.4195 16.6888C54.7139 17.051 55.178 17.2321 55.8119 17.2321C56.1515 17.2321 56.5138 17.1868 56.8987 17.0963C57.3062 16.9831 57.7024 16.8472 58.0873 16.6888C58.4722 16.5303 58.8457 16.3491 59.208 16.1454C59.5702 15.9416 59.8985 15.7265 60.1928 15.5001ZM78.4493 12.9871C78.9247 13.5983 79.3662 14.3002 79.7738 15.0926C80.2039 15.885 80.5775 16.7454 80.8945 17.6736C81.2341 18.5792 81.4944 19.5414 81.6756 20.5603C81.8567 21.5791 81.9472 22.6205 81.9472 23.6846C81.9472 23.8205 81.8227 23.945 81.5737 24.0582C81.3246 24.1488 80.985 24.2393 80.5549 24.3299C80.1473 24.3978 79.6719 24.4544 79.1285 24.4997C78.6078 24.545 78.0757 24.5676 77.5324 24.5676C76.989 24.5676 76.4569 24.545 75.9362 24.4997C75.4381 24.4544 74.974 24.3865 74.5438 24.2959C74.1363 24.1827 73.7967 24.0469 73.525 23.8884C73.276 23.7299 73.1288 23.5375 73.0835 23.3111C73.0382 22.9941 73.0382 22.5639 73.0835 22.0206C73.1515 21.4546 73.2081 20.8546 73.2533 20.2207C73.3213 19.5867 73.3665 18.9754 73.3892 18.3868C73.4118 17.7981 73.3665 17.3227 73.2533 16.9604C73.1854 16.6661 73.0609 16.4737 72.8798 16.3831C72.8798 16.4284 72.8571 16.7227 72.8118 17.2661C72.7892 17.8095 72.7552 18.4094 72.71 19.066C72.6647 19.6999 72.6194 20.2999 72.5741 20.8659C72.5515 21.4093 72.5402 21.7149 72.5402 21.7828C72.5628 22.213 72.4609 22.6092 72.2345 22.9715C72.0308 23.3337 71.7477 23.6393 71.3855 23.8884C71.0459 24.1374 70.6497 24.3299 70.1969 24.4657C69.7441 24.6016 69.3026 24.6695 68.8724 24.6695C68.4196 24.6695 67.9215 24.6468 67.3782 24.6016C66.8348 24.5789 66.3367 24.477 65.8839 24.2959C65.4084 24.1148 65.0236 23.8318 64.7292 23.4469C64.4349 23.062 64.3443 22.5073 64.4575 21.7828C64.4575 21.7376 64.4689 21.5564 64.4915 21.2395C64.5141 20.8999 64.5255 20.481 64.5255 19.9829C64.5481 19.4848 64.5707 18.9188 64.5934 18.2849C64.616 17.651 64.6387 17.017 64.6613 16.3831C64.7292 14.8888 64.7972 13.1908 64.8651 11.289C64.9104 10.406 64.9104 9.54571 64.8651 8.70802C64.8424 7.87033 64.7972 7.11187 64.7292 6.43266C64.684 5.75345 64.616 5.18744 64.5255 4.73463C64.4349 4.28183 64.3557 3.99882 64.2877 3.88562C64.1066 3.61394 64.0047 3.35357 63.9821 3.10453C63.9821 2.83284 64.084 2.60644 64.2877 2.42531V2.39135C64.4236 2.23287 64.7292 2.10835 65.2047 2.01779C65.6801 1.92723 66.1895 1.87063 66.7329 1.84799C67.2763 1.80271 67.797 1.78006 68.2951 1.78006C68.8158 1.78006 69.1781 1.78006 69.3818 1.78006C70.1063 1.78006 70.6723 1.81403 71.0799 1.88195C71.51 1.94987 71.8383 2.06307 72.0647 2.22155C72.2911 2.35739 72.4383 2.53852 72.5062 2.76492C72.5968 2.96869 72.6534 3.20641 72.676 3.47809C72.7892 4.38371 72.8684 5.28932 72.9137 6.19494C72.959 7.07791 73.0043 7.94957 73.0496 8.8099C73.2533 8.53822 73.3779 8.13069 73.4231 7.58732C73.4911 7.04395 73.525 6.46662 73.525 5.85533C73.525 5.24404 73.5137 4.65539 73.4911 4.08938C73.4684 3.50073 73.4911 3.03661 73.559 2.697C73.6043 2.42532 73.8759 2.22155 74.374 2.08571C74.8721 1.94987 75.4608 1.85931 76.14 1.81403C76.706 1.79139 77.2833 1.81403 77.872 1.88195C78.4833 1.94987 79.0379 2.05175 79.536 2.18759C80.0568 2.32343 80.4756 2.50456 80.7926 2.73096C81.1322 2.93472 81.302 3.19509 81.302 3.51205C81.2793 4.14598 81.1888 4.90444 81.0303 5.78741C80.8945 6.64775 80.702 7.53072 80.453 8.43634C80.2039 9.31931 79.9096 10.1683 79.57 10.9834C79.2304 11.7984 78.8568 12.4663 78.4493 12.9871ZM52.2701 46.3758C52.4738 46.4663 52.655 46.6361 52.8134 46.8852C53.0172 47.2248 53.1644 47.6663 53.2549 48.2096C53.3681 48.753 53.4247 49.319 53.4247 49.9077C53.4474 50.4963 53.4134 51.0623 53.3229 51.6057C53.2323 52.1491 53.0965 52.5792 52.9153 52.8962C52.8927 52.9415 52.8701 52.9867 52.8474 53.032C52.8248 53.0547 52.8021 53.0886 52.7795 53.1339H52.7455C52.6323 53.2698 52.5078 53.3603 52.372 53.4056C52.3946 53.9263 52.4059 54.3565 52.4059 54.6961C52.4059 55.0131 52.4059 55.2281 52.4059 55.3413C52.4512 55.9074 52.4399 56.4281 52.372 56.9035C52.3267 57.379 52.2361 57.7865 52.1003 58.1261C51.9871 58.4657 51.8512 58.7374 51.6928 58.9412C51.5569 59.1676 51.4211 59.3147 51.2852 59.3827C51.0362 59.4959 50.8437 59.5411 50.7079 59.5185C50.5721 59.5185 50.4475 59.5072 50.3343 59.4845C50.2664 59.4845 50.2098 59.4959 50.1645 59.5185C50.1192 59.5411 50.04 59.6204 49.9268 59.7562C49.7457 59.9373 49.6325 60.1411 49.5872 60.3675C49.5419 60.5939 49.508 60.809 49.4853 61.0128C49.44 61.2165 49.3948 61.409 49.3495 61.5901C49.3042 61.7712 49.1683 61.8844 48.9419 61.9297C48.7155 61.975 48.5344 61.8957 48.3986 61.692C48.2854 61.5109 48.1609 61.2958 48.025 61.0467C47.9797 60.9335 47.9005 60.775 47.7873 60.5713C47.6741 60.3675 47.5835 60.2656 47.5156 60.2656C47.5156 60.2656 47.4816 60.2996 47.4137 60.3675C47.3458 60.4581 47.2552 60.5373 47.142 60.6052C47.0515 60.6958 46.9156 60.7524 46.7345 60.775C46.4855 60.775 46.2817 60.6958 46.1232 60.5373C45.9874 60.3788 45.8629 60.2203 45.7497 60.0619C45.6591 59.926 45.5685 59.8015 45.478 59.6883C45.41 59.5977 45.3195 59.5298 45.2063 59.4845C45.0704 59.4619 44.9233 59.4959 44.7648 59.5864C44.6063 59.6996 44.4705 59.8241 44.3573 59.96C44.3346 60.0279 44.312 60.1524 44.2893 60.3336C44.2893 60.5147 44.2893 60.7184 44.2893 60.9448C44.312 61.1939 44.3233 61.4542 44.3233 61.7259C44.3459 61.9976 44.3686 62.258 44.3912 62.507C44.5044 63.7296 44.5497 64.7371 44.5271 65.5295C44.5044 66.3219 44.3233 66.854 43.9837 67.1257C43.8479 67.2615 43.6781 67.3294 43.4743 67.3294C43.3837 67.3294 43.3045 67.3181 43.2366 67.2955C42.9422 67.2275 42.7158 67.0577 42.5574 66.7861C42.4215 66.537 42.331 66.22 42.2857 65.8352C42.2404 65.4503 42.2291 65.0314 42.2517 64.5786C42.2744 64.1258 42.297 63.6617 42.3196 63.1862C42.3423 62.9825 42.3536 62.7561 42.3536 62.507C42.3762 62.2806 42.3876 62.0542 42.3876 61.8278C42.3876 61.6241 42.3762 61.4429 42.3536 61.2844C42.3536 61.126 42.331 61.0128 42.2857 60.9448C42.2178 60.8543 42.1612 60.809 42.1159 60.809V60.843C42.0706 60.9562 42.0027 61.0694 41.9121 61.1826C41.8442 61.3184 41.7197 61.409 41.5385 61.4542C41.3574 61.4995 41.2103 61.4769 41.0971 61.3863C40.9839 61.3184 40.882 61.2505 40.7914 61.1826C40.7461 61.1599 40.7122 61.126 40.6895 61.0807C40.6669 61.058 40.6442 61.0467 40.6216 61.0467C40.6216 61.092 40.5876 61.1486 40.5197 61.2165C40.4744 61.3071 40.4065 61.3976 40.316 61.4882C40.248 61.6014 40.1235 61.6354 39.9424 61.5901C39.4443 61.4995 38.9575 61.0694 38.4821 60.2996C38.0066 59.5298 37.5991 58.5676 37.2595 57.4129C36.9199 56.2583 36.6709 54.9791 36.5124 53.5754C36.3765 52.1491 36.3992 50.7567 36.5803 49.3982C36.6256 48.5379 36.7841 47.5983 37.0557 46.5795C37.3274 45.5607 37.6784 44.5419 38.1085 43.5231C38.5613 42.5043 39.0934 41.5081 39.7047 40.5345C40.3386 39.561 41.0291 38.6894 41.7763 37.9196C42.5234 37.1498 43.3385 36.5159 44.2214 36.0178C45.1044 35.4971 46.0327 35.1801 47.0062 35.0669C47.3684 35.0216 47.776 35.0216 48.2288 35.0669C48.7042 35.1122 49.191 35.1914 49.6891 35.3046C50.1872 35.4178 50.6626 35.565 51.1154 35.7461C51.5682 35.9272 51.9531 36.1197 52.2701 36.3234C52.4738 36.4366 52.655 36.5951 52.8134 36.7989C52.9719 36.98 53.0512 37.1498 53.0512 37.3083C53.0738 37.4668 53.0625 37.6026 53.0172 37.7158C52.7682 38.4177 52.5757 39.527 52.4399 41.044C52.3267 42.5382 52.2701 44.3155 52.2701 46.3758ZM37.3274 49.4662V49.5001C37.3048 49.9982 37.3274 50.4963 37.3954 50.9944C37.5086 51.4698 37.7123 51.8774 38.0066 52.217C38.3236 52.5339 38.7085 52.7943 39.1613 52.9981C38.8217 52.7717 38.5274 52.5113 38.2783 52.217C38.0519 51.9 37.8934 51.5151 37.8029 51.0623C37.6218 50.1341 37.667 48.9907 37.9387 47.6323C38.2104 46.2512 38.6632 44.8589 39.2971 43.4552C39.9311 42.0288 40.7235 40.693 41.6744 39.4478C42.6479 38.1799 43.7233 37.1838 44.9006 36.4593C43.8592 36.98 42.8856 37.7498 41.98 38.7686C41.0971 39.7648 40.316 40.8741 39.6368 42.0967C38.9575 43.3193 38.4142 44.5872 38.0066 45.9003C37.5991 47.1908 37.3727 48.3794 37.3274 49.4662ZM45.444 45.6965C45.3987 45.7871 45.41 45.8777 45.478 45.9682C45.5459 46.0588 45.6365 46.1041 45.7497 46.1041C45.8402 46.0814 45.9195 46.0701 45.9874 46.0701C46.0779 46.0701 46.1798 46.0588 46.293 46.0362H46.6666C46.6892 45.8098 46.7005 45.5947 46.7005 45.3909C46.7232 45.1645 46.7571 44.9381 46.8024 44.7117C46.5534 44.757 46.2817 44.8815 45.9874 45.0853C45.7157 45.289 45.5346 45.4928 45.444 45.6965ZM50.9796 58.7034C51.0249 58.6582 51.0815 58.5789 51.1494 58.4657C51.2173 58.3525 51.2965 58.194 51.3871 57.9903C51.3418 58.0129 51.2965 58.0469 51.2513 58.0922C50.3909 58.6129 49.4287 58.8732 48.3646 58.8732C47.8212 58.8732 47.2552 58.8053 46.6666 58.6695C45.4893 58.3978 44.6629 57.0167 44.1875 54.5263C43.8931 54.5489 43.429 54.5489 42.7951 54.5263C42.1612 54.5037 41.4933 54.4244 40.7914 54.2886C40.0896 54.1527 39.4103 53.9376 38.7538 53.6433C38.0972 53.3264 37.5765 52.8962 37.1916 52.3528C37.2369 53.3943 37.3501 54.4018 37.5312 55.3753C37.7123 56.3262 37.9387 57.1865 38.2104 57.9563C38.4821 58.7261 38.7651 59.36 39.0594 59.8581C39.3537 60.3562 39.6368 60.6732 39.9084 60.809C39.9537 60.7184 40.0216 60.6279 40.1122 60.5373C40.2028 60.4468 40.3273 60.3788 40.4858 60.3336C40.6669 60.2883 40.8254 60.2996 40.9612 60.3675C41.0971 60.4581 41.2103 60.5486 41.3008 60.6392C41.3008 60.6618 41.3235 60.6732 41.3687 60.6732L41.4027 60.6052C41.448 60.492 41.5046 60.3675 41.5725 60.2317C41.6631 60.1185 41.7876 60.0392 41.9461 59.9939C42.3083 59.926 42.6253 60.1071 42.897 60.5373C43.0554 60.7637 43.1347 61.092 43.1347 61.5222C43.1347 61.9523 43.112 62.5297 43.0668 63.2542C43.0441 63.5485 43.0215 63.8768 42.9988 64.239C42.9762 64.6239 42.9649 64.9748 42.9649 65.2918C42.9875 65.6314 43.0328 65.9257 43.1007 66.1748C43.1687 66.4238 43.2705 66.5597 43.4064 66.5823C43.4517 66.6276 43.4743 66.6276 43.4743 66.5823C43.4969 66.5823 43.5083 66.5823 43.5083 66.5823C43.6215 66.4917 43.7007 66.288 43.746 65.971C43.7913 65.6767 43.8139 65.3371 43.8139 64.9522C43.8139 64.5673 43.7913 64.1598 43.746 63.7296C43.7233 63.2994 43.7007 62.9146 43.6781 62.5749C43.6101 61.692 43.5649 61.0014 43.5422 60.5034C43.5422 60.0279 43.6215 59.6996 43.7799 59.5185C43.9611 59.2695 44.1875 59.0657 44.4592 58.9072C44.7535 58.7487 45.0591 58.7034 45.3761 58.7714C45.6251 58.8393 45.8176 58.9525 45.9534 59.111C46.1119 59.2921 46.2477 59.4619 46.3609 59.6204C46.4062 59.7109 46.4628 59.8015 46.5307 59.8921C46.5987 59.9826 46.6553 60.0279 46.7005 60.0279C46.7458 60.0279 46.7911 59.9826 46.8364 59.8921C46.9043 59.8241 46.9836 59.7449 47.0741 59.6543C47.1647 59.5638 47.3005 59.5185 47.4816 59.5185C47.7986 59.5185 48.0477 59.6543 48.2288 59.926C48.4099 60.1977 48.5684 60.4694 48.7042 60.7411C48.7042 60.7637 48.7269 60.7977 48.7721 60.843C48.7948 60.6166 48.8401 60.3562 48.908 60.0619C48.9985 59.7902 49.1457 59.5298 49.3495 59.2808C49.5759 59.0317 49.7683 58.8732 49.9268 58.8053C50.0853 58.7374 50.2551 58.7261 50.4362 58.7714C50.5268 58.794 50.606 58.794 50.6739 58.7714C50.7419 58.7714 50.8437 58.7487 50.9796 58.7034ZM46.7685 57.9224C46.0666 57.3111 45.5572 56.0545 45.2402 54.1527H44.8667C45.2742 56.4394 45.9081 57.6959 46.7685 57.9224ZM18.1953 81.5644C18.6934 82.221 19.0104 82.9454 19.1462 83.7379C19.282 84.5303 19.316 85.2887 19.2481 86.0132C19.1802 87.7792 18.9877 89.2055 18.6708 90.2922C18.3538 91.379 17.9915 92.0016 17.584 92.1601C17.1765 92.2959 16.8256 92.3752 16.5312 92.3978C15.9426 92.4884 15.5351 92.6808 15.3087 92.9751C15.0823 93.2921 14.9238 93.7223 14.8332 94.2656C14.7879 94.4694 14.7313 94.6618 14.6634 94.843C14.5955 95.0467 14.4483 95.1712 14.2219 95.2165C13.9955 95.2618 13.8031 95.1826 13.6446 94.9788C13.5087 94.7977 13.3616 94.5826 13.2031 94.3336C13.0899 94.1524 12.9654 93.96 12.8295 93.7562C12.6937 93.5525 12.5692 93.4506 12.456 93.4506C12.4107 93.4506 12.3428 93.5072 12.2522 93.6204C12.1616 93.6883 12.0598 93.7562 11.9466 93.8241C11.8334 93.9147 11.6862 93.9713 11.5051 93.9939C11.2334 93.9939 11.007 93.9147 10.8259 93.7562C10.6674 93.6204 10.5202 93.4619 10.3844 93.2808C10.2712 93.1676 10.1693 93.0544 10.0787 92.9412C9.98817 92.828 9.88629 92.7487 9.77308 92.7034C9.65988 92.7261 9.54668 92.7374 9.43348 92.7374C9.32028 92.7374 9.20707 92.7374 9.09387 92.7374C8.79955 92.8506 8.59578 92.9864 8.48258 93.1449C8.4373 93.2129 8.40334 93.3374 8.3807 93.5185C8.3807 93.7223 8.3807 93.9487 8.3807 94.1977C8.40334 94.4694 8.42598 94.7411 8.44862 95.0128C8.47126 95.3071 8.4939 95.5788 8.51654 95.8278C8.56182 96.3259 8.6071 96.824 8.65239 97.3221C8.69767 97.8202 8.70899 98.273 8.68635 98.6805C8.66371 99.1107 8.6071 99.4956 8.51654 99.8352C8.44862 100.175 8.31278 100.424 8.10902 100.582C7.92789 100.763 7.71281 100.854 7.46377 100.854H7.39584L7.29396 100.82H7.22604C6.8638 100.752 6.59211 100.571 6.41099 100.277C6.25251 100.005 6.1393 99.6654 6.07138 99.2578C6.0261 98.8729 6.01478 98.4428 6.03742 97.9673C6.06006 97.4919 6.09402 97.0164 6.1393 96.541C6.18458 96.0882 6.20722 95.6127 6.20722 95.1146C6.22987 94.6392 6.18458 94.3336 6.07138 94.1977C5.93554 94.0166 5.83366 93.926 5.76574 93.926C5.7431 93.9487 5.72046 93.9713 5.69782 93.9939C5.69782 94.0392 5.6865 94.0845 5.66386 94.1298C5.61858 94.243 5.55065 94.3562 5.46009 94.4694C5.36953 94.5826 5.23369 94.6618 5.05257 94.7071C4.87144 94.7524 4.71296 94.7411 4.57712 94.6732C4.44128 94.6052 4.31675 94.526 4.20355 94.4354C4.15827 94.3902 4.11299 94.3449 4.06771 94.2996C4.02243 94.277 3.97715 94.277 3.93187 94.2996C3.88659 94.2996 3.80735 94.3675 3.69414 94.5034C3.64886 94.5713 3.58094 94.6505 3.49038 94.7411C3.42246 94.8316 3.32058 94.8769 3.18473 94.8769C2.98097 94.8769 2.78853 94.7184 2.60741 94.4015C2.44892 94.1071 2.30176 93.7109 2.16592 93.2129C2.03008 92.7374 1.91687 92.2054 1.82631 91.6167C1.75839 91.0054 1.71311 90.4054 1.69047 89.8168C1.64519 89.3187 1.62255 88.6508 1.62255 87.8131C1.62255 86.9528 1.63387 85.8434 1.65651 84.485C1.67915 83.3077 1.69047 82.0511 1.69047 80.7154C1.71311 79.3796 1.69047 78.1004 1.62255 76.8778C1.57727 75.6552 1.47539 74.5572 1.3169 73.5836C1.15842 72.5875 0.920698 71.8403 0.603732 71.3423C0.309407 70.9574 0.298087 70.5725 0.569772 70.1876C0.750895 69.9385 1.04522 69.7121 1.45275 69.5084C1.88291 69.3046 2.39232 69.1348 2.98097 68.999C3.56962 68.8631 4.22619 68.7612 4.95068 68.6933C5.67518 68.6028 6.43363 68.5575 7.22604 68.5575C7.95053 68.5575 8.73163 68.6028 9.56932 68.6933C10.4297 68.7612 11.29 68.8858 12.1503 69.0669C13.0107 69.2254 13.837 69.4518 14.6294 69.7461C15.4219 70.0404 16.1124 70.4027 16.701 70.8328H16.735C17.867 71.6479 18.5349 72.6441 18.7387 73.8214C18.8972 74.7949 18.8632 75.7118 18.6368 76.5722C18.433 77.4099 18.0708 78.1344 17.5501 78.7457C17.3689 78.9494 17.1312 79.1645 16.8369 79.3909C16.6784 79.5041 16.5199 79.606 16.3614 79.6965C16.2256 79.7871 16.0671 79.8664 15.886 79.9343C16.3388 80.0928 16.769 80.3078 17.1765 80.5795C17.584 80.8512 17.9236 81.1795 18.1953 81.5644ZM1.21502 70.9347C1.57727 71.4781 1.83763 72.2479 1.99612 73.244C2.17724 74.2402 2.30176 75.3609 2.36968 76.6061C2.4376 77.8514 2.46024 79.1645 2.4376 80.5456C2.4376 81.904 2.42628 83.2171 2.40364 84.485C2.40364 85.1416 2.39232 85.7981 2.36968 86.4547C2.36968 87.1113 2.36968 87.7226 2.36968 88.2886C2.36968 88.8546 2.381 89.33 2.40364 89.7149C2.44892 90.0998 2.50552 90.3488 2.57344 90.462C2.66401 90.53 2.79985 90.6092 2.98097 90.6998C2.82249 90.496 2.73193 89.9526 2.70929 89.0697C2.68665 88.1867 2.68665 87.1226 2.70929 85.8774C2.73193 84.6095 2.75457 83.2398 2.77721 81.7681C2.79985 80.2739 2.78853 78.8362 2.74325 77.4552C2.69797 76.0741 2.58477 74.8175 2.40364 73.6855C2.22252 72.5535 1.95083 71.7045 1.58859 71.1385C1.36218 70.7762 1.43011 70.448 1.79235 70.1536C1.47539 70.2895 1.27162 70.4366 1.18106 70.5951C1.11314 70.6857 1.12446 70.7989 1.21502 70.9347ZM10.3844 77.5231C10.3844 77.6363 10.3844 77.7382 10.3844 77.8287C10.3844 77.8966 10.3731 77.9872 10.3504 78.1004C10.4863 78.1004 10.6447 78.0778 10.8259 78.0325C11.007 77.9646 11.1768 77.8853 11.3353 77.7948C11.5164 77.6816 11.6636 77.5684 11.7768 77.4552C11.89 77.3193 11.9466 77.1721 11.9466 77.0137C11.9466 76.8325 11.8107 76.708 11.539 76.6401H11.5051C11.3239 76.5948 11.1315 76.5722 10.9277 76.5722C10.724 76.5495 10.5542 76.5495 10.4183 76.5722V76.6741L10.3844 76.8439V76.9457V77.5231ZM11.4711 82.9568C11.2447 82.8662 11.007 82.8209 10.7579 82.8209C10.5089 82.7983 10.3391 82.7983 10.2485 82.8209V83.1945C10.2485 83.3303 10.2485 83.4775 10.2485 83.636C10.2485 83.7718 10.2599 83.9077 10.2825 84.0435V84.5529C10.4183 84.5303 10.5881 84.5076 10.7919 84.485C10.9957 84.4397 11.1881 84.3831 11.3692 84.3152C11.5504 84.2246 11.6975 84.1227 11.8107 84.0095C11.9466 83.8737 12.0145 83.7039 12.0145 83.5001C11.9918 83.3643 11.9239 83.2511 11.8107 83.1605C11.7202 83.07 11.607 83.002 11.4711 82.9568ZM17.3123 91.4469C17.4255 91.4016 17.5614 91.2092 17.7199 90.8696C17.8783 90.53 18.0255 89.93 18.1613 89.0697C17.7765 89.6357 17.2897 90.1224 16.701 90.53C16.135 90.9375 15.5237 91.2884 14.8672 91.5827C14.2106 91.8771 13.5314 92.1148 12.8295 92.2959C12.1277 92.4544 11.4485 92.5676 10.7919 92.6355C10.8372 92.6582 10.8598 92.6808 10.8598 92.7034C10.8825 92.7261 10.9164 92.76 10.9617 92.8053C11.1881 93.0997 11.3579 93.2468 11.4711 93.2468C11.539 93.2468 11.6183 93.1902 11.7088 93.077C11.7994 93.0091 11.9013 92.9298 12.0145 92.8393C12.1277 92.7714 12.2748 92.7374 12.456 92.7374C12.7729 92.7374 13.0333 92.8732 13.2371 93.1449C13.4635 93.4166 13.6672 93.6883 13.8484 93.96L14.0521 94.2996C14.0748 94.277 14.0861 94.2317 14.0861 94.1637C14.1993 93.4619 14.437 92.9072 14.7992 92.4997C15.1615 92.0695 15.7049 91.7978 16.4294 91.6846C16.701 91.6393 16.9954 91.5601 17.3123 91.4469ZM7.63357 100.039C7.74677 99.9257 7.82601 99.7106 7.87129 99.3937C7.91657 99.0993 7.93921 98.7484 7.93921 98.3409C7.93921 97.956 7.91657 97.5372 7.87129 97.0844C7.84865 96.6542 7.82601 96.258 7.80337 95.8957C7.71281 94.9901 7.65621 94.2883 7.63357 93.7902C7.63357 93.2921 7.72413 92.9298 7.90525 92.7034C6.88644 92.6582 5.9129 92.5223 4.98464 92.2959C4.07903 92.0469 3.26398 91.7186 2.53948 91.3111C2.60741 92.0356 2.69797 92.6129 2.81117 93.043C2.94701 93.4732 3.07153 93.7789 3.18473 93.96C3.25266 93.8921 3.3319 93.8128 3.42246 93.7223C3.51302 93.6543 3.63754 93.5977 3.79603 93.5525C3.97715 93.5072 4.13563 93.5298 4.27147 93.6204C4.42996 93.7109 4.5658 93.7902 4.679 93.8581C4.76956 93.9487 4.83748 93.9939 4.88276 93.9939C4.9054 93.9939 4.91672 93.9713 4.91672 93.926C4.93936 93.8807 4.962 93.8355 4.98464 93.7902C5.02993 93.677 5.09785 93.5638 5.18841 93.4506C5.30161 93.3374 5.44877 93.2581 5.6299 93.2129C5.8563 93.1676 6.06006 93.2129 6.24119 93.3487C6.42231 93.4845 6.55815 93.6091 6.64871 93.7223C6.85248 93.9713 6.95436 94.3222 6.95436 94.775C6.95436 95.2505 6.9204 95.8505 6.85248 96.5749C6.82984 96.9372 6.80719 97.3108 6.78455 97.6956C6.76191 98.1032 6.76191 98.4767 6.78455 98.8163C6.80719 99.156 6.85248 99.439 6.9204 99.6654C7.01096 99.9144 7.15812 100.062 7.36188 100.107C7.45245 100.107 7.54301 100.084 7.63357 100.039ZM33.3452 85.0284C33.6395 85.0284 33.8999 85.2208 34.1263 85.6057C34.3753 85.9679 34.5564 86.4434 34.6696 87.032C34.8055 87.598 34.8621 88.2093 34.8394 88.8659C34.8394 89.5225 34.7489 90.1338 34.5677 90.6998C34.4093 91.2431 34.1376 91.7073 33.7527 92.0922C33.3904 92.4544 32.9037 92.6242 32.2924 92.6016C32.0886 92.5789 31.7151 92.5789 31.1717 92.6016C30.651 92.6016 30.0397 92.6016 29.3378 92.6016C28.636 92.6242 27.8888 92.6355 27.0964 92.6355C26.304 92.6355 25.5456 92.6242 24.8211 92.6016C24.1192 92.5563 23.4853 92.4997 22.9193 92.4318C22.3533 92.3412 21.9457 92.2167 21.6967 92.0582C21.3797 91.8544 21.1194 91.5714 20.9156 91.2092C20.7345 90.8469 20.6892 90.3715 20.7798 89.7828C20.7798 89.7602 20.7911 89.5338 20.8137 89.1036C20.8364 88.6735 20.859 88.1301 20.8816 87.4735C20.9043 86.7943 20.9269 86.0585 20.9496 85.2661C20.9948 84.4737 21.0288 83.7039 21.0514 82.9568C21.0967 82.187 21.1307 81.5078 21.1533 80.9191C21.176 80.3078 21.1873 79.8664 21.1873 79.5947C21.1873 78.7796 21.1873 78.0098 21.1873 77.2853C21.1873 76.5609 21.176 75.893 21.1533 75.2817C21.108 74.4213 21.0401 73.7082 20.9496 73.1422C20.8816 72.5535 20.7684 72.1347 20.61 71.8856C20.4515 71.6366 20.3609 71.3875 20.3383 71.1385C20.3156 70.8894 20.3835 70.6744 20.542 70.4932C20.7005 70.2895 20.9722 70.131 21.3571 70.0178C21.742 69.8819 22.274 69.814 22.9532 69.814H27.3341C27.6964 69.8367 28.036 70.131 28.353 70.697C28.6926 71.2404 28.9076 71.9422 28.9982 72.8026C29.0661 73.7082 29.0661 74.6477 28.9982 75.6213C28.9529 76.5722 28.9416 77.3759 28.9642 78.0325V78.0664C28.9416 78.3834 28.919 79.006 28.8963 79.9343C28.8963 80.8625 28.885 81.904 28.8624 83.0586C28.885 83.4888 28.9529 83.8284 29.0661 84.0775C29.1793 84.3039 29.3039 84.4737 29.4397 84.5869C29.5982 84.7001 29.768 84.7793 29.9491 84.8246C30.1529 84.8472 30.3453 84.8699 30.5264 84.8925C30.7981 84.9378 31.0811 84.9718 31.3754 84.9944C31.6924 85.017 31.9867 85.0284 32.2584 85.0284C32.5301 85.0284 32.7565 85.0284 32.9376 85.0284C33.1414 85.0284 33.2772 85.0284 33.3452 85.0284ZM51.9465 76.7759C52.2635 77.9985 52.4107 79.3796 52.388 80.9191C52.3654 82.436 52.1503 83.9303 51.7428 85.4019C51.3352 86.8509 50.7013 88.1754 49.841 89.3753C49.0033 90.5752 47.9052 91.4695 46.5468 92.0582C45.528 92.4884 44.3846 92.7034 43.1168 92.7034C41.9395 92.7034 40.7961 92.4884 39.6868 92.0582C38.6 91.628 37.7171 90.9828 37.0378 90.1224C36.585 89.5338 36.2115 88.9112 35.9171 88.2546C35.6228 87.5754 35.3964 86.8849 35.2379 86.183C35.0794 85.4585 34.9776 84.734 34.9323 84.0095C34.9096 83.285 34.9323 82.5719 35.0002 81.87C35.0455 81.304 35.1247 80.6927 35.2379 80.0362C35.3511 79.3796 35.4983 78.7343 35.6794 78.1004C35.8605 77.4665 36.0643 76.8891 36.2907 76.3684C36.5398 75.8477 36.8228 75.4402 37.1397 75.1458C36.4605 75.6892 35.9171 75.9609 35.5096 75.9609C35.2379 75.9609 35.0228 75.8477 34.8644 75.6213C34.638 75.3043 34.5248 74.8628 34.5248 74.2968C34.5474 73.7082 34.7285 73.1195 35.0681 72.5309C35.4304 71.9196 35.9964 71.3536 36.7662 70.8328C37.5586 70.2895 38.6227 69.9046 39.9584 69.6782C40.5018 69.5876 41.0112 69.5197 41.4867 69.4744C41.9848 69.4291 42.4602 69.4065 42.913 69.4065C44.5884 69.4065 45.9581 69.6669 47.0222 70.1876C48.109 70.6857 48.992 71.3083 49.6712 72.0554C50.3504 72.8026 50.8598 73.6063 51.1994 74.4666C51.539 75.327 51.788 76.0967 51.9465 76.7759ZM43.4903 85.0623C43.8752 85.0397 44.1469 84.8246 44.3054 84.4171C44.4865 84.0095 44.5658 83.5681 44.5431 83.0926C44.5431 82.5945 44.4412 82.153 44.2375 81.7681C44.0337 81.3606 43.7394 81.1569 43.3545 81.1569C43.0375 81.1569 42.7772 81.3719 42.5734 81.8021C42.3696 82.2096 42.2564 82.6624 42.2338 83.1605C42.2112 83.636 42.2904 84.0775 42.4715 84.485C42.6753 84.8925 43.0149 85.085 43.4903 85.0623ZM70.386 76.7759C70.703 77.9985 70.8502 79.3796 70.8275 80.9191C70.8049 82.436 70.5898 83.9303 70.1823 85.4019C69.7748 86.8509 69.1408 88.1754 68.2805 89.3753C67.4428 90.5752 66.3447 91.4695 64.9863 92.0582C63.9675 92.4884 62.8242 92.7034 61.5563 92.7034C60.379 92.7034 59.2357 92.4884 58.1263 92.0582C57.0395 91.628 56.1566 90.9828 55.4774 90.1224C55.0246 89.5338 54.651 88.9112 54.3567 88.2546C54.0623 87.5754 53.8359 86.8849 53.6775 86.183C53.519 85.4585 53.4171 84.734 53.3718 84.0095C53.3492 83.285 53.3718 82.5719 53.4397 81.87C53.485 81.304 53.5643 80.6927 53.6775 80.0362C53.7907 79.3796 53.9378 78.7343 54.1189 78.1004C54.3001 77.4665 54.5038 76.8891 54.7302 76.3684C54.9793 75.8477 55.2623 75.4402 55.5792 75.1458C54.9 75.6892 54.3567 75.9609 53.9491 75.9609C53.6775 75.9609 53.4624 75.8477 53.3039 75.6213C53.0775 75.3043 52.9643 74.8628 52.9643 74.2968C52.9869 73.7082 53.168 73.1195 53.5076 72.5309C53.8699 71.9196 54.4359 71.3536 55.2057 70.8328C55.9981 70.2895 57.0622 69.9046 58.398 69.6782C58.9413 69.5876 59.4507 69.5197 59.9262 69.4744C60.4243 69.4291 60.8997 69.4065 61.3525 69.4065C63.0279 69.4065 64.3977 69.6669 65.4618 70.1876C66.5485 70.6857 67.4315 71.3083 68.1107 72.0554C68.7899 72.8026 69.2993 73.6063 69.6389 74.4666C69.9785 75.327 70.2276 76.0967 70.386 76.7759ZM61.9299 85.0623C62.3148 85.0397 62.5864 84.8246 62.7449 84.4171C62.926 84.0095 63.0053 83.5681 62.9826 83.0926C62.9826 82.5945 62.8808 82.153 62.677 81.7681C62.4732 81.3606 62.1789 81.1569 61.794 81.1569C61.4771 81.1569 61.2167 81.3719 61.0129 81.8021C60.8092 82.2096 60.696 82.6624 60.6733 83.1605C60.6507 83.636 60.7299 84.0775 60.9111 84.485C61.1148 84.8925 61.4544 85.085 61.9299 85.0623ZM71.4086 71.7837C71.2275 71.5121 71.2388 71.263 71.4425 71.0366C71.6463 70.7876 71.9859 70.5725 72.4614 70.3914C72.9368 70.2102 73.5255 70.0631 74.2273 69.9499C74.9518 69.8367 75.7329 69.7801 76.5706 69.7801C77.4988 69.7801 78.4724 69.8593 79.4912 70.0178C80.5327 70.1763 81.5515 70.4366 82.5477 70.7989C83.5438 71.1611 84.4834 71.6366 85.3664 72.2252C86.272 72.8139 87.0531 73.5497 87.7097 74.4327C88.3662 75.293 88.8756 76.3118 89.2379 77.4891C89.6001 78.6438 89.736 79.9796 89.6454 81.4965C89.5548 83.4662 89.0794 85.1529 88.2191 86.5566C87.3814 87.9603 86.3399 89.1149 85.0947 90.0206C83.8721 90.9035 82.525 91.5601 81.0534 91.9903C79.6044 92.3978 78.212 92.6016 76.8762 92.6016C75.2914 92.6016 73.9556 92.3412 72.8689 91.8205C72.733 91.7525 72.6312 91.4582 72.5632 90.9375C72.518 90.4168 72.484 89.7489 72.4614 88.9338C72.4614 88.1188 72.4727 87.1905 72.4953 86.1491C72.5406 85.1076 72.5632 84.0209 72.5632 82.8888C72.5859 81.7568 72.5859 80.6248 72.5632 79.4928C72.5632 78.3608 72.518 77.2967 72.4274 76.3005C72.3595 75.3043 72.2463 74.41 72.0878 73.6176C71.9293 72.8252 71.7029 72.2139 71.4086 71.7837ZM80.2383 84.6888C80.3968 84.6888 80.6119 84.6208 80.8836 84.485C81.1553 84.3491 81.4156 84.1567 81.6647 83.9077C81.9364 83.636 82.1628 83.319 82.3439 82.9568C82.5477 82.5945 82.6495 82.1983 82.6495 81.7681C82.6495 81.4965 82.559 81.2701 82.3778 81.0889C82.2194 80.9078 82.0156 80.7833 81.7666 80.7154C81.5175 80.6248 81.2572 80.5795 80.9855 80.5795C80.7138 80.5569 80.4874 80.5682 80.3063 80.6135C80.2836 81.2927 80.261 81.9719 80.2383 82.6511C80.2383 83.3303 80.2383 84.0095 80.2383 84.6888Z" fill="url(#paint0_linear_3_49)"/>
<defs>
<linearGradient id="paint0_linear_3_49" x1="39.5" y1="-27.5532" x2="130.288" y2="23.0709" gradientUnits="userSpaceOnUse">
<stop offset="0.0179064" stop-color="#D31027"/>
<stop offset="1" stop-color="#EA384D"/>
</linearGradient>
</defs>
</svg>
