<svg width="165" height="38" viewBox="0 0 165 38" fill="none" xmlns="http://www.w3.org/2000/svg">
<path d="M36.0498 16.7212C36.2908 18.1673 36.5146 19.6135 36.7212 21.0596C36.9622 22.4713 37.186 23.9002 37.3926 25.3463C36.7729 25.3119 36.1531 25.2947 35.5333 25.2947C34.948 25.2602 34.3454 25.243 33.7257 25.243L32.7444 35.1593L26.5467 33.6099L26.1335 25.5529C25.7548 25.5873 25.3933 25.6218 25.0489 25.6562C24.7391 25.6562 24.412 25.6734 24.0676 25.7078C23.6889 25.7423 23.3446 25.7767 23.0347 25.8111C22.7592 25.8456 22.4494 25.88 22.105 25.9144C21.7607 25.9489 21.4164 25.9833 21.0721 26.0177C20.7622 26.0522 20.4179 26.1038 20.0391 26.1727C20.349 26.1727 20.6589 26.1899 20.9688 26.2243C21.3131 26.2243 21.6402 26.2415 21.9501 26.276C21.9157 27.0679 21.8985 27.8942 21.8985 28.755C21.8985 29.5814 21.8985 30.4422 21.8985 31.3374C21.9329 32.3015 21.9673 33.2311 22.0017 34.1264C22.0362 35.0216 22.0878 35.8996 22.1567 36.7604C21.0893 36.6915 20.0047 36.6054 18.9029 36.5021C17.8355 36.3988 16.7854 36.2955 15.7524 36.1922C15.4425 34.6428 15.1499 33.1106 14.8744 31.5956C14.6334 30.0806 14.4268 28.5484 14.2547 26.999C14.1858 26.276 14.1169 25.5529 14.0481 24.8298C13.9792 24.1068 13.9103 23.4009 13.8415 22.7123C13.7726 22.6434 13.6693 22.5746 13.5316 22.5057C12.7397 21.9548 11.9994 21.2834 11.3108 20.4915C10.691 19.6995 10.1745 18.8388 9.76134 17.9091C9.38259 16.9795 9.15879 16.0154 9.08992 15.0169C9.08992 14.7414 9.07271 14.466 9.03828 14.1905C9.03828 13.8806 9.02106 13.5879 8.98663 13.3125C8.98663 13.5191 8.96941 13.7429 8.93498 13.9839C8.93498 14.1905 8.9522 14.4315 8.98663 14.707C8.98663 15.2234 9.03828 15.6711 9.14157 16.0498C8.79725 16.9106 8.53902 17.9435 8.36686 19.1486C8.22913 20.0783 8.1947 20.9563 8.26357 21.7827C8.33243 22.609 8.43572 23.3837 8.57345 24.1068C8.74561 24.7954 8.93498 25.4324 9.14157 26.0177C9.34816 26.5686 9.53753 27.0335 9.70969 27.4122C9.12435 26.9302 8.64231 26.4653 8.26357 26.0177C7.88482 25.5357 7.55772 25.1053 7.28227 24.7265C7.04125 24.3478 6.74858 23.8485 6.40426 23.2288C6.05995 22.5746 5.76728 21.7654 5.52626 20.8014C5.38853 20.2504 5.30245 19.7512 5.26802 19.3036C5.23359 18.856 5.23359 18.46 5.26802 18.1157C5.16473 18.5289 5.14751 19.1314 5.21638 19.9233C5.25081 20.3021 5.30245 20.6636 5.37132 21.0079C5.44018 21.3523 5.50904 21.6621 5.57791 21.9376C5.50904 23.1427 5.57791 24.3994 5.7845 25.7078C6.05995 27.4294 6.47313 28.9444 7.02403 30.2528C7.57494 31.5268 8.10862 32.5941 8.6251 33.4549C8.31521 33.2483 7.83317 32.9212 7.17897 32.4736C6.52477 31.9916 5.81893 31.3546 5.06143 30.5627C4.30394 29.7708 3.54645 28.8067 2.78895 27.6704C2.06589 26.5342 1.46334 25.2258 0.981298 23.7452C0.912435 23.5387 0.774709 23.0222 0.56812 22.1958C0.361531 21.335 0.223805 20.2849 0.154942 19.0453C0.12051 17.7714 0.223805 16.3597 0.464826 14.8103C0.740278 13.2608 1.3084 11.6942 2.16919 10.1104C2.85782 8.80197 3.66696 7.64851 4.59661 6.64999C5.52626 5.65148 6.49034 4.79069 7.48886 4.06763C8.48737 3.31014 9.46867 2.69037 10.4328 2.20833C11.3968 1.72629 12.2748 1.36476 13.0668 1.12374C13.8931 0.848282 14.5645 0.693341 15.081 0.658909C15.6319 0.624478 15.959 0.676126 16.0623 0.813852C16.1656 0.951579 16.0107 1.22703 15.5975 1.64021C15.1843 2.01896 14.685 2.55264 14.0997 3.24127C13.5144 3.89547 12.929 4.70461 12.3437 5.6687C11.7584 6.63278 11.3452 7.76902 11.1042 9.07742C11.0697 9.28401 11.0181 9.62832 10.9492 10.1104C10.9148 10.5924 10.9148 11.1605 10.9492 11.8147C11.0181 12.4345 11.1558 13.1231 11.3624 13.8806C11.6034 14.6381 11.9477 15.3956 12.3953 16.1531C12.5675 16.4285 12.7397 16.6696 12.9118 16.8762C13.1184 17.0827 13.325 17.2721 13.5316 17.4443C13.4627 15.4472 13.4111 13.4502 13.3766 11.4532C13.3766 9.45616 13.4111 7.4247 13.4799 5.35881C15.2704 5.42768 17.0608 5.49654 18.8513 5.5654C20.6761 5.59983 22.4838 5.65148 24.2742 5.72034C23.8955 7.8551 23.5512 9.97264 23.2413 12.073C22.9314 14.1389 22.6732 16.2392 22.4666 18.3739C23.0175 18.2706 23.5512 18.1673 24.0676 18.064C24.6185 17.9608 25.1694 17.8747 25.7203 17.8058L24.9973 4.79069C26.8222 4.72183 28.6298 4.67018 30.4203 4.63575C32.2107 4.60132 34.0011 4.54967 35.7916 4.48081C35.6194 6.47784 35.43 8.45765 35.2235 10.4202C35.0169 12.3828 34.8103 14.3627 34.6037 16.3597C34.1561 16.463 33.7085 16.5835 33.2609 16.7212C32.8132 16.8245 32.3484 16.9278 31.8664 17.0311C32.3484 16.9622 32.8305 16.9278 33.3125 16.9278C33.829 16.8934 34.3282 16.8417 34.8103 16.7729C35.0169 16.7729 35.2234 16.7729 35.43 16.7729C35.6366 16.7729 35.8432 16.7556 36.0498 16.7212ZM59.6768 15.43C60.1933 17.1172 60.5032 18.9421 60.6065 20.9046C60.7098 22.8328 60.5548 24.7265 60.1416 26.5858C59.7629 28.4452 59.0915 30.1839 58.1274 31.8022C57.1633 33.3861 55.8549 34.6773 54.2022 35.6758H54.1506C53.9784 35.7791 53.8062 35.8824 53.6341 35.9857C53.4619 36.0545 53.2898 36.1234 53.1176 36.1922C53.0143 36.2267 52.825 36.2955 52.5495 36.3988C52.3085 36.4677 52.0158 36.5538 51.6715 36.6571C51.3272 36.7259 50.9484 36.7948 50.5353 36.8637C50.1565 36.967 49.8122 37.0186 49.5023 37.0186C48.5382 37.053 47.5397 36.8809 46.5068 36.5021C45.4738 36.1234 44.4753 35.5208 43.5112 34.6945C42.5816 33.8337 41.738 32.7663 40.9805 31.4923C40.2574 30.1839 39.7065 28.6517 39.3278 26.8957C39.7754 26.7236 40.1886 26.5514 40.5673 26.3793C40.8772 26.2415 41.1527 26.121 41.3937 26.0177C41.6691 25.9144 41.8413 25.8456 41.9102 25.8111L38.3981 26.7408C38.1227 24.3994 38.0366 22.3852 38.1399 20.6981C38.2432 18.9765 38.467 17.4098 38.8113 15.9982C39.1901 14.4487 39.827 12.9682 40.7223 11.5565C41.6175 10.1104 42.7365 8.93969 44.0793 8.04447C45.0779 7.32141 46.1969 6.83937 47.4364 6.59835C48.676 6.35733 49.8983 6.35733 51.1034 6.59835C52.4118 6.8738 53.5652 7.37306 54.5637 8.09612C55.5623 8.78475 56.4575 9.62832 57.2494 10.6268C57.5249 11.0056 57.7487 11.3499 57.9208 11.6598C58.2996 12.2107 58.6094 12.7788 58.8505 13.3641C59.1259 13.9495 59.3669 14.5348 59.5735 15.1202C59.5735 15.189 59.608 15.2923 59.6768 15.43ZM52.7561 23.5903C52.9282 21.8343 52.7217 20.1816 52.1363 18.6322C52.0675 18.4256 51.9297 18.1157 51.7231 17.7025C51.5166 17.2893 51.2755 16.8934 51.0001 16.5146C50.7246 16.1359 50.432 15.8432 50.1221 15.6366C49.8122 15.43 49.5023 15.43 49.1924 15.6366C48.917 15.8088 48.7104 16.067 48.5727 16.4113C48.4349 16.7556 48.3316 17.1344 48.2628 17.5476C48.1939 17.9263 48.1423 18.3223 48.1078 18.7355C48.1078 19.1486 48.0906 19.493 48.0562 19.7684C48.0562 19.8717 48.0562 20.1644 48.0562 20.6464C48.0906 21.1285 48.1078 21.6449 48.1078 22.1958C48.1423 22.7467 48.1595 23.2288 48.1595 23.642C48.1939 24.0551 48.2283 24.2617 48.2628 24.2617C47.7807 24.3994 47.2815 24.52 46.765 24.6233C46.283 24.7265 45.8009 24.8471 45.3189 24.9848C45.5255 26.3276 46.0936 27.5499 47.0232 28.6517C47.3676 29.0649 47.7807 29.4264 48.2628 29.7363C48.7448 30.0118 49.2441 30.0806 49.7605 29.9429C50.1737 29.8396 50.518 29.6158 50.7935 29.2715C51.1034 28.8928 51.3444 28.514 51.5166 28.1353C51.8609 27.4466 52.1363 26.7236 52.3429 25.9661C52.5495 25.1742 52.6872 24.3822 52.7561 23.5903ZM80.0327 25.1397C80.136 26.6547 80.2565 28.1525 80.3942 29.633C80.5664 31.1136 80.773 32.5769 81.014 34.0231L81.169 35.0044C79.3441 35.4864 77.502 35.5208 75.6427 35.1077C73.8178 34.66 72.1479 33.8853 70.6329 32.7835C70.5296 33.4377 70.4263 34.1091 70.323 34.7978C70.2197 35.452 70.1164 36.1234 70.0131 36.812L64.2286 35.8307C64.2975 32.4909 64.2286 29.2371 64.0221 26.0694C63.8499 22.9017 63.5056 19.6995 62.9891 16.463C62.8858 16.4974 62.662 16.5491 62.3177 16.6179C62.0078 16.6868 61.784 16.7384 61.6463 16.7729C61.2675 15.1202 60.8544 13.5019 60.4067 11.918C59.9591 10.2997 59.4943 8.66424 59.0123 7.01153C60.424 6.80494 62.0078 6.65 63.7638 6.5467C65.5198 6.40897 67.2758 6.39176 69.0318 6.49505C70.8223 6.59835 72.5266 6.85658 74.1449 7.26976C75.7976 7.68294 77.2093 8.33714 78.38 9.23236C79.5162 10.0587 80.377 11.0744 80.9624 12.2795C81.5477 13.4847 81.8576 14.7414 81.892 16.0498C81.9609 17.3582 81.7371 18.6322 81.2206 19.8717C80.7041 21.1112 79.895 22.1786 78.7932 23.0738C78.2767 23.5559 77.7774 23.9691 77.2954 24.3134C76.8478 24.6577 76.3141 24.9848 75.6943 25.2947C75.4189 25.2602 75.1607 25.2258 74.9196 25.1914C74.713 25.1569 74.5065 25.1397 74.2999 25.1397C74.1277 25.1053 73.99 25.0709 73.8867 25.0364L74.0416 25.0881C74.4548 25.2258 74.7819 25.3291 75.0229 25.398C75.2639 25.4324 75.4017 25.4496 75.4361 25.4496C76.1936 25.5529 76.9511 25.5529 77.7086 25.4496C78.4661 25.3119 79.2408 25.2086 80.0327 25.1397ZM71.7691 19.5618C71.9413 19.4585 72.1995 19.2864 72.5439 19.0453C72.8882 18.8043 73.2153 18.5289 73.5252 18.219C73.835 17.9091 74.0761 17.5992 74.2482 17.2893C74.4204 16.945 74.4204 16.6351 74.2482 16.3597L74.0933 16.2047C73.9211 16.0326 73.7317 15.9293 73.5252 15.8949C73.353 15.826 73.1636 15.7744 72.957 15.7399C72.9226 15.7055 72.8882 15.6883 72.8537 15.6883C72.5439 15.6194 72.2684 15.585 72.0274 15.585C71.7864 15.585 71.597 15.585 71.4593 15.585C71.2182 15.6194 70.9428 15.6366 70.6329 15.6366C70.3575 15.6022 70.0304 15.585 69.6516 15.585C69.9271 15.6194 70.1853 15.6538 70.4263 15.6883C70.6673 15.7227 70.9084 15.7571 71.1494 15.7916C71.4248 15.826 71.6486 15.8604 71.8208 15.8949C71.8208 16.4802 71.8036 17.1 71.7691 17.7542C71.7691 18.3739 71.7691 18.9765 71.7691 19.5618ZM93.8867 29.2715C93.6112 29.3059 93.353 29.3232 93.112 29.3232C92.9398 29.3576 92.7677 29.3748 92.5955 29.3748C92.4234 29.3748 92.3373 29.392 92.3373 29.4264L96.1075 29.7363L95.9009 36.3988L84.6935 36.9153L84.3319 28.7034L87.0176 28.9616C86.7422 27.7565 86.5011 26.5686 86.2945 25.398C86.088 24.2273 85.8986 23.0738 85.7264 21.9376C85.3132 19.2864 85.0378 16.6696 84.9001 14.0872L86.7077 13.9839L83.1957 13.7257L83.4539 7.01153L96.0042 6.70164L96.4174 14.6553L93.9383 14.5004C93.7318 16.7729 93.6285 19.1142 93.6285 21.5244C93.594 22.7984 93.594 24.0723 93.6285 25.3463C93.6973 26.5858 93.7834 27.8942 93.8867 29.2715ZM106.948 28.8583C107.293 28.8239 107.62 28.8067 107.93 28.8067C108.274 28.7723 108.618 28.755 108.962 28.755L117.949 28.2902L117.329 36.6054L98.5297 36.6571C98.5297 36.5193 98.5125 36.1234 98.4781 35.4692C98.4436 34.7806 98.4092 34.0575 98.3748 33.3C98.3403 32.5081 98.3059 31.785 98.2715 31.1308C98.237 30.4766 98.2198 30.0979 98.2198 29.9946L98.7363 29.2715C100.045 27.4811 101.301 25.7423 102.507 24.0551C103.746 22.368 104.848 20.8702 105.812 19.5618C106.776 18.2534 107.568 17.186 108.188 16.3597C108.808 15.4989 109.152 15.0169 109.221 14.9136C109.599 14.8447 109.995 14.7931 110.409 14.7586C110.822 14.6898 111.218 14.6209 111.596 14.552C111.218 14.5865 110.822 14.6209 110.409 14.6553C109.995 14.6553 109.599 14.6725 109.221 14.707C107.361 14.8103 105.519 14.9136 103.694 15.0169C101.904 15.0857 100.096 15.1718 98.2715 15.2751L98.8912 6.85658H117.691C117.691 7.06317 117.708 7.49357 117.742 8.14777C117.777 8.80197 117.811 9.50781 117.846 10.2653C117.88 10.9884 117.915 11.6598 117.949 12.2795C117.984 12.8993 118.001 13.2953 118.001 13.4674C118.001 13.5019 117.932 13.6396 117.794 13.8806C117.656 14.1216 117.57 14.2421 117.536 14.2421C116.193 16.5146 114.764 18.9076 113.249 21.4211C111.734 23.9002 110.288 26.276 108.911 28.5484C108.566 28.6173 108.239 28.669 107.93 28.7034C107.62 28.7378 107.293 28.7895 106.948 28.8583ZM140.174 15.43C140.69 17.1172 141 18.9421 141.104 20.9046C141.207 22.8328 141.052 24.7265 140.639 26.5858C140.26 28.4452 139.589 30.1839 138.625 31.8022C137.66 33.3861 136.352 34.6773 134.699 35.6758H134.648C134.476 35.7791 134.303 35.8824 134.131 35.9857C133.959 36.0545 133.787 36.1234 133.615 36.1922C133.511 36.2267 133.322 36.2955 133.047 36.3988C132.806 36.4677 132.513 36.5538 132.169 36.6571C131.824 36.7259 131.446 36.7948 131.032 36.8637C130.654 36.967 130.309 37.0186 129.999 37.0186C129.035 37.053 128.037 36.8809 127.004 36.5021C125.971 36.1234 124.972 35.5208 124.008 34.6945C123.079 33.8337 122.235 32.7663 121.478 31.4923C120.755 30.1839 120.204 28.6517 119.825 26.8957C120.273 26.7236 120.686 26.5514 121.064 26.3793C121.374 26.2415 121.65 26.121 121.891 26.0177C122.166 25.9144 122.338 25.8456 122.407 25.8111L118.895 26.7408C118.62 24.3994 118.534 22.3852 118.637 20.6981C118.74 18.9765 118.964 17.4098 119.308 15.9982C119.687 14.4487 120.324 12.9682 121.219 11.5565C122.115 10.1104 123.234 8.93969 124.576 8.04447C125.575 7.32141 126.694 6.83937 127.934 6.59835C129.173 6.35733 130.395 6.35733 131.601 6.59835C132.909 6.8738 134.062 7.37306 135.061 8.09612C136.059 8.78475 136.955 9.62832 137.747 10.6268C138.022 11.0056 138.246 11.3499 138.418 11.6598C138.797 12.2107 139.107 12.7788 139.348 13.3641C139.623 13.9495 139.864 14.5348 140.071 15.1202C140.071 15.189 140.105 15.2923 140.174 15.43ZM133.253 23.5903C133.425 21.8343 133.219 20.1816 132.633 18.6322C132.565 18.4256 132.427 18.1157 132.22 17.7025C132.014 17.2893 131.773 16.8934 131.497 16.5146C131.222 16.1359 130.929 15.8432 130.619 15.6366C130.309 15.43 129.999 15.43 129.69 15.6366C129.414 15.8088 129.208 16.067 129.07 16.4113C128.932 16.7556 128.829 17.1344 128.76 17.5476C128.691 17.9263 128.639 18.3223 128.605 18.7355C128.605 19.1486 128.588 19.493 128.553 19.7684C128.553 19.8717 128.553 20.1644 128.553 20.6464C128.588 21.1285 128.605 21.6449 128.605 22.1958C128.639 22.7467 128.657 23.2288 128.657 23.642C128.691 24.0551 128.725 24.2617 128.76 24.2617C128.278 24.3994 127.779 24.52 127.262 24.6233C126.78 24.7265 126.298 24.8471 125.816 24.9848C126.023 26.3276 126.591 27.5499 127.52 28.6517C127.865 29.0649 128.278 29.4264 128.76 29.7363C129.242 30.0118 129.741 30.0806 130.258 29.9429C130.671 29.8396 131.015 29.6158 131.291 29.2715C131.601 28.8928 131.842 28.514 132.014 28.1353C132.358 27.4466 132.633 26.7236 132.84 25.9661C133.047 25.1742 133.184 24.3822 133.253 23.5903ZM164.887 6.85658C164.164 11.5393 163.785 16.2392 163.751 20.9563C163.717 25.6734 163.837 30.4938 164.112 35.4175L155.642 34.4362C154.678 32.5425 153.628 30.6488 152.492 28.755C151.39 26.8269 150.237 24.9848 149.031 23.2288C149.307 23.6764 149.565 24.1584 149.806 24.6749C150.047 25.1569 150.305 25.6218 150.581 26.0694C150.753 27.8598 150.822 29.6847 150.787 31.544C150.753 33.3689 150.65 35.0904 150.478 36.7087L143.195 35.1593C143.299 30.3389 143.333 25.5873 143.299 20.9046C143.264 16.222 142.868 11.5737 142.111 6.95988L149.548 6.44341C149.996 7.26976 150.443 8.14777 150.891 9.07742C151.373 10.0071 151.838 10.8851 152.285 11.7114C152.939 13.0198 153.576 14.311 154.196 15.585C154.85 16.8589 155.487 18.1329 156.107 19.4069C156.314 19.7856 156.52 20.1816 156.727 20.5948C156.934 20.9735 157.123 21.3523 157.295 21.731C157.123 21.3523 156.951 20.9219 156.779 20.4398C156.606 19.9233 156.434 19.4757 156.262 19.097C156.193 18.4772 156.159 17.9091 156.159 17.3926C156.159 16.8417 156.142 16.222 156.107 15.5333C156.038 13.9839 156.038 12.4861 156.107 11.04C156.176 9.55946 156.262 8.16498 156.365 6.85658C157.364 6.85658 158.38 6.85658 159.413 6.85658C160.273 6.82215 161.186 6.80494 162.15 6.80494C163.148 6.80494 164.061 6.82215 164.887 6.85658Z" fill="url(#paint0_linear_3_55)"/>
<defs>
<linearGradient id="paint0_linear_3_55" x1="83" y1="-4.18799" x2="83" y2="47.9313" gradientUnits="userSpaceOnUse">
<stop stop-color="#DCE35B"/>
<stop offset="1" stop-color="#45B649"/>
</linearGradient>
</defs>
</svg>
