<svg width="169" height="54" viewBox="0 0 169 54" fill="none" xmlns="http://www.w3.org/2000/svg">
<path d="M0.124857 2.66798L3.58215 0.391928V20.5595H11.5627V22H3.58215L0.124857 24.2761V2.66798ZM13.2923 8.68943L16.7784 11.5129L24.9894 8.63181V18.6003C24.9894 19.0421 24.8838 19.4358 24.6725 19.7816C24.4805 20.1273 24.2116 20.4346 23.8658 20.7035H30.1754V22H19.7171C18.9488 22.0384 18.1805 22 17.4122 21.8848C16.6439 21.7503 15.9525 21.5486 15.3378 21.2797C14.7232 20.9916 14.2238 20.6267 13.8397 20.1849C13.4747 19.7239 13.2923 19.1958 13.2923 18.6003V8.68943ZM16.7784 19.3206C16.7784 19.7816 17.0185 20.1273 17.4986 20.3578C17.998 20.5883 18.5454 20.7035 19.1409 20.7035C19.7363 20.7035 20.2837 20.5883 20.7831 20.3578C21.2825 20.1273 21.5322 19.7816 21.5322 19.3206V11.0807L16.7784 12.7229V19.3206ZM44.7439 22H29.3014V9.20802L36.0719 11.5129L39.558 8.68943V11.945L36.0719 14.538V12.7229L32.7587 11.6569V20.7035H44.7439V22ZM51.2714 19.868L46.5176 22H43.0315V8.68943L46.5176 11.5129L51.2714 9.84186V3.273L54.7287 0.391928V20.7035H60.2027V22H54.7287L51.2714 24.8811V19.868ZM51.2714 18.6003V11.0807L46.5176 12.7229V20.7035L51.2714 18.6003ZM67.0788 11.3688L62.6131 12.7229V15.8921L70.248 18.0529V20.7035H75.6644V22H59.0406V20.7035H66.7619V18.3698L59.127 16.1802V8.68943L62.6131 11.5129L70.5361 8.91991V12.6365L67.0788 13.7889V11.3688ZM82.8432 0.391928L86.3294 3.21538L98.2858 0.334307V17.8801C98.2858 18.5715 98.0649 19.1765 97.6232 19.6951C97.1814 20.1945 96.5956 20.6171 95.8657 20.9628C95.155 21.3085 94.3291 21.5678 93.388 21.7407C92.466 21.9136 91.5249 22 90.5645 22C89.6042 22 88.6534 21.9136 87.7123 21.7407C86.7903 21.5678 85.9644 21.3085 85.2345 20.9628C84.5239 20.6171 83.9477 20.1945 83.5059 19.6951C83.0641 19.1765 82.8432 18.5715 82.8432 17.8801V0.391928ZM86.3294 18.6003C86.3294 18.9461 86.4446 19.2534 86.6751 19.5223C86.9248 19.7912 87.2417 20.0121 87.6258 20.1849C88.0292 20.3578 88.4806 20.4922 88.9799 20.5883C89.4985 20.6651 90.0267 20.7035 90.5645 20.7035C91.1023 20.7035 91.6209 20.6651 92.1203 20.5883C92.6389 20.4922 93.0999 20.3578 93.5032 20.1849C93.9066 20.0121 94.2235 19.7912 94.454 19.5223C94.7037 19.2534 94.8285 18.9461 94.8285 18.6003V2.63917L86.3294 4.71354V18.6003ZM107.354 3.30182L104.617 4.36781V10.0435H107.383V11.34H104.617V20.7035H114.297V22H104.617L101.131 24.8811V11.34H100.295V10.0435H101.131V0.334307L104.617 3.15776L110.811 0.852901V4.56949L107.354 5.72192V3.30182ZM125.524 2.66798H119.473V1.37149H127.483L128.981 0.391928V1.37149H135.06V2.66798H128.981V22L125.524 24.2761V2.66798ZM136.61 3.273L140.067 0.391928V9.84186L144.821 11.5129L148.307 8.68943V20.7035H153.521V22H144.821V12.7229L140.067 11.0807V22L136.61 24.8811V3.273ZM168.378 22H152.647V8.68943L156.134 11.5129L163.768 8.91991V16.1514L156.134 19.1189V20.7035H168.378V22ZM160.311 16.209V11.3688L156.134 12.7229V17.8224L160.311 16.209ZM55.2655 32.0713L49.3593 33.7135V42.1839H56.6196V43.4804H49.3593V51L45.8732 53.3049V29.3919L49.3593 32.2154L58.7228 29.6224V33.339L55.2655 34.4914V32.0713ZM67.6744 48.868L62.9206 51H59.4345V37.6894L62.9206 40.5129L71.1317 37.6318V49.7035H76.3176V51H67.6744V48.868ZM67.6744 47.6003V40.0807L62.9206 41.7229V49.7035L67.6744 47.6003ZM75.4436 32.273L78.9009 29.3919V49.7035H84.058V51H78.9009L75.4436 53.8811V32.273ZM83.1809 32.273L86.6382 29.3919V49.7035H91.7953V51H86.6382L83.1809 53.8811V32.273ZM106.649 51H90.9181V37.6894L94.4042 40.5129L102.039 37.9199V45.1514L94.4042 48.1189V49.7035H106.649V51ZM98.5818 45.209V40.3688L94.4042 41.7229V46.8224L98.5818 45.209ZM106.027 37.6318L114.238 40.5129L117.724 37.6894V49.7035H122.881V51H114.238V41.7229L109.484 40.0807V51L106.027 53.8811V37.6318Z" fill="url(#paint0_linear_3_39)"/>
<path d="M0.124857 2.66798L0.0148821 2.50093L-0.0751434 2.5602V2.66798H0.124857ZM3.58215 0.391928H3.78215V0.0208115L3.47217 0.224878L3.58215 0.391928ZM3.58215 20.5595H3.38215V20.7595H3.58215V20.5595ZM11.5627 20.5595H11.7627V20.3595H11.5627V20.5595ZM11.5627 22V22.2H11.7627V22H11.5627ZM3.58215 22V21.8H3.52222L3.47217 21.833L3.58215 22ZM0.124857 24.2761H-0.0751434V24.6472L0.234831 24.4431L0.124857 24.2761ZM0.234831 2.83503L3.69212 0.558978L3.47217 0.224878L0.0148821 2.50093L0.234831 2.83503ZM3.38215 0.391928V20.5595H3.78215V0.391928H3.38215ZM3.58215 20.7595H11.5627V20.3595H3.58215V20.7595ZM11.3627 20.5595V22H11.7627V20.5595H11.3627ZM11.5627 21.8H3.58215V22.2H11.5627V21.8ZM3.47217 21.833L0.0148822 24.109L0.234831 24.4431L3.69212 22.167L3.47217 21.833ZM0.324857 24.2761V2.66798H-0.0751434V24.2761H0.324857ZM13.2923 8.68943L13.4182 8.53401L13.0923 8.27008V8.68943H13.2923ZM16.7784 11.5129L16.6525 11.6683L16.7393 11.7386L16.8446 11.7016L16.7784 11.5129ZM24.9894 8.63181H25.1894V8.34968L24.9232 8.44309L24.9894 8.63181ZM24.6725 19.7816L24.5017 19.6772L24.4977 19.6844L24.6725 19.7816ZM23.8658 20.7035L23.743 20.5456L23.2829 20.9035H23.8658V20.7035ZM30.1754 20.7035H30.3754V20.5035H30.1754V20.7035ZM30.1754 22V22.2H30.3754V22H30.1754ZM19.7171 22V21.7998L19.7071 21.8002L19.7171 22ZM17.4122 21.8848L17.3777 22.0818L17.3825 22.0825L17.4122 21.8848ZM15.3378 21.2797L15.2529 21.4609L15.2577 21.463L15.3378 21.2797ZM13.8397 20.1849L13.6827 20.3092L13.6888 20.3162L13.8397 20.1849ZM17.4986 20.3578L17.4121 20.5381L17.4148 20.5394L17.4986 20.3578ZM20.7831 20.3578L20.6993 20.1762L20.6993 20.1762L20.7831 20.3578ZM21.5322 11.0807H21.7322V10.8L21.4668 10.8917L21.5322 11.0807ZM16.7784 12.7229L16.7131 12.5339L16.5784 12.5804V12.7229H16.7784ZM13.1664 8.84485L16.6525 11.6683L16.9043 11.3575L13.4182 8.53401L13.1664 8.84485ZM16.8446 11.7016L25.0557 8.82053L24.9232 8.44309L16.7122 11.3242L16.8446 11.7016ZM24.7894 8.63181V18.6003H25.1894V8.63181H24.7894ZM24.7894 18.6003C24.7894 19.0087 24.6922 19.3658 24.5019 19.6773L24.8432 19.8859C25.0754 19.5059 25.1894 19.0755 25.1894 18.6003H24.7894ZM24.4977 19.6844C24.32 20.0042 24.0698 20.2915 23.743 20.5456L23.9886 20.8614C24.3533 20.5777 24.6409 20.2504 24.8474 19.8787L24.4977 19.6844ZM23.8658 20.9035H30.1754V20.5035H23.8658V20.9035ZM29.9754 20.7035V22H30.3754V20.7035H29.9754ZM30.1754 21.8H19.7171V22.2H30.1754V21.8ZM19.7071 21.8002C18.9522 21.838 18.1972 21.8003 17.4419 21.687L17.3825 22.0825C18.1638 22.1997 18.9454 22.2388 19.7271 22.1998L19.7071 21.8002ZM17.4467 21.6878C16.6916 21.5556 16.0159 21.3581 15.418 21.0965L15.2577 21.463C15.8891 21.7392 16.5962 21.945 17.3777 22.0818L17.4467 21.6878ZM15.4227 21.0986C14.8293 20.8205 14.3538 20.4713 13.9906 20.0537L13.6888 20.3162C14.0939 20.7821 14.6171 21.1628 15.253 21.4608L15.4227 21.0986ZM13.9965 20.0608C13.6599 19.6356 13.4923 19.1513 13.4923 18.6003H13.0923C13.0923 19.2402 13.2896 19.8123 13.6829 20.3091L13.9965 20.0608ZM13.4923 18.6003V8.68943H13.0923V18.6003H13.4923ZM16.5784 19.3206C16.5784 19.5878 16.6486 19.8302 16.7942 20.0397C16.9385 20.2476 17.1489 20.4118 17.4121 20.5381L17.5852 20.1775C17.3682 20.0733 17.2184 19.9494 17.1227 19.8115C17.0281 19.6754 16.9784 19.5144 16.9784 19.3206H16.5784ZM17.4148 20.5394C17.9426 20.783 18.5189 20.9035 19.1409 20.9035V20.5035C18.572 20.5035 18.0535 20.3936 17.5825 20.1762L17.4148 20.5394ZM19.1409 20.9035C19.7628 20.9035 20.3391 20.783 20.8669 20.5394L20.6993 20.1762C20.2283 20.3936 19.7098 20.5035 19.1409 20.5035V20.9035ZM20.8669 20.5394C21.139 20.4138 21.357 20.2504 21.507 20.0427C21.6585 19.833 21.7322 19.5895 21.7322 19.3206H21.3322C21.3322 19.5126 21.281 19.6725 21.1827 19.8085C21.083 19.9466 20.9266 20.0713 20.6993 20.1762L20.8669 20.5394ZM21.7322 19.3206V11.0807H21.3322V19.3206H21.7322ZM21.4668 10.8917L16.7131 12.5339L16.8437 12.912L21.5975 11.2698L21.4668 10.8917ZM16.5784 12.7229V19.3206H16.9784V12.7229H16.5784ZM44.7439 22V22.2H44.9439V22H44.7439ZM29.3014 22H29.1014V22.2H29.3014V22ZM29.3014 9.20802L29.3658 9.01869L29.1014 8.92866V9.20802H29.3014ZM36.0719 11.5129L36.0075 11.7022L36.112 11.7378L36.1978 11.6683L36.0719 11.5129ZM39.558 8.68943H39.758V8.27008L39.4321 8.53401L39.558 8.68943ZM39.558 11.945L39.6774 12.1055L39.758 12.0455V11.945H39.558ZM36.0719 14.538H35.8719V14.936L36.1913 14.6985L36.0719 14.538ZM36.0719 12.7229H36.2719V12.5772L36.1332 12.5325L36.0719 12.7229ZM32.7587 11.6569L32.8199 11.4665L32.5587 11.3825V11.6569H32.7587ZM32.7587 20.7035H32.5587V20.9035H32.7587V20.7035ZM44.7439 20.7035H44.9439V20.5035H44.7439V20.7035ZM44.7439 21.8H29.3014V22.2H44.7439V21.8ZM29.5014 22V9.20802H29.1014V22H29.5014ZM29.2369 9.39735L36.0075 11.7022L36.1364 11.3236L29.3658 9.01869L29.2369 9.39735ZM36.1978 11.6683L39.6839 8.84485L39.4321 8.53401L35.946 11.3575L36.1978 11.6683ZM39.358 8.68943V11.945H39.758V8.68943H39.358ZM39.4386 11.7846L35.9525 14.3775L36.1913 14.6985L39.6774 12.1055L39.4386 11.7846ZM36.2719 14.538V12.7229H35.8719V14.538H36.2719ZM36.1332 12.5325L32.8199 11.4665L32.6974 11.8473L36.0107 12.9133L36.1332 12.5325ZM32.5587 11.6569V20.7035H32.9587V11.6569H32.5587ZM32.7587 20.9035H44.7439V20.5035H32.7587V20.9035ZM44.5439 20.7035V22H44.9439V20.7035H44.5439ZM51.2714 19.868H51.4714V19.5591L51.1895 19.6855L51.2714 19.868ZM46.5176 22V22.2H46.5604L46.5995 22.1825L46.5176 22ZM43.0315 22H42.8315V22.2H43.0315V22ZM43.0315 8.68943L43.1574 8.53401L42.8315 8.27008V8.68943H43.0315ZM46.5176 11.5129L46.3917 11.6683L46.4785 11.7386L46.5839 11.7016L46.5176 11.5129ZM51.2714 9.84186L51.3377 10.0305L51.4714 9.98355V9.84186H51.2714ZM51.2714 3.273L51.1433 3.11936L51.0714 3.17933V3.273H51.2714ZM54.7287 0.391928H54.9287V-0.0350805L54.6006 0.238284L54.7287 0.391928ZM54.7287 20.7035H54.5287V20.9035H54.7287V20.7035ZM60.2027 20.7035H60.4027V20.5035H60.2027V20.7035ZM60.2027 22V22.2H60.4027V22H60.2027ZM54.7287 22V21.8H54.6563L54.6006 21.8464L54.7287 22ZM51.2714 24.8811H51.0714V25.3081L51.3994 25.0347L51.2714 24.8811ZM51.2714 18.6003L51.3523 18.7832L51.4714 18.7305V18.6003H51.2714ZM51.2714 11.0807H51.4714V10.8L51.2061 10.8917L51.2714 11.0807ZM46.5176 12.7229L46.4523 12.5339L46.3176 12.5804V12.7229H46.5176ZM46.5176 20.7035H46.3176V21.0107L46.5985 20.8864L46.5176 20.7035ZM51.1895 19.6855L46.4358 21.8175L46.5995 22.1825L51.3532 20.0505L51.1895 19.6855ZM46.5176 21.8H43.0315V22.2H46.5176V21.8ZM43.2315 22V8.68943H42.8315V22H43.2315ZM42.9056 8.84485L46.3917 11.6683L46.6435 11.3575L43.1574 8.53401L42.9056 8.84485ZM46.5839 11.7016L51.3377 10.0305L51.2051 9.65318L46.4513 11.3242L46.5839 11.7016ZM51.4714 9.84186V3.273H51.0714V9.84186H51.4714ZM51.3994 3.42665L54.8567 0.545572L54.6006 0.238284L51.1433 3.11936L51.3994 3.42665ZM54.5287 0.391928V20.7035H54.9287V0.391928H54.5287ZM54.7287 20.9035H60.2027V20.5035H54.7287V20.9035ZM60.0027 20.7035V22H60.4027V20.7035H60.0027ZM60.2027 21.8H54.7287V22.2H60.2027V21.8ZM54.6006 21.8464L51.1433 24.7274L51.3994 25.0347L54.8567 22.1536L54.6006 21.8464ZM51.4714 24.8811V19.868H51.0714V24.8811H51.4714ZM51.4714 18.6003V11.0807H51.0714V18.6003H51.4714ZM51.2061 10.8917L46.4523 12.5339L46.5829 12.912L51.3367 11.2698L51.2061 10.8917ZM46.3176 12.7229V20.7035H46.7176V12.7229H46.3176ZM46.5985 20.8864L51.3523 18.7832L51.1905 18.4174L46.4367 20.5206L46.5985 20.8864ZM67.0788 11.3688H67.2788V11.0992L67.0208 11.1774L67.0788 11.3688ZM62.6131 12.7229L62.5551 12.5315L62.4131 12.5746V12.7229H62.6131ZM62.6131 15.8921H62.4131V16.0434L62.5587 16.0846L62.6131 15.8921ZM70.248 18.0529H70.448V17.9017L70.3025 17.8605L70.248 18.0529ZM70.248 20.7035H70.048V20.9035H70.248V20.7035ZM75.6644 20.7035H75.8644V20.5035H75.6644V20.7035ZM75.6644 22V22.2H75.8644V22H75.6644ZM59.0406 22H58.8406V22.2H59.0406V22ZM59.0406 20.7035V20.5035H58.8406V20.7035H59.0406ZM66.7619 20.7035V20.9035H66.9619V20.7035H66.7619ZM66.7619 18.3698H66.9619V18.2191L66.817 18.1776L66.7619 18.3698ZM59.127 16.1802H58.927V16.3309L59.0719 16.3725L59.127 16.1802ZM59.127 8.68943L59.2529 8.53401L58.927 8.27008V8.68943H59.127ZM62.6131 11.5129L62.4873 11.6683L62.5719 11.7368L62.6753 11.703L62.6131 11.5129ZM70.5361 8.91991H70.7361V8.64402L70.4739 8.72983L70.5361 8.91991ZM70.5361 12.6365L70.5993 12.8262L70.7361 12.7807V12.6365H70.5361ZM67.0788 13.7889H66.8788V14.0664L67.1421 13.9787L67.0788 13.7889ZM67.0208 11.1774L62.5551 12.5315L62.6712 12.9143L67.1368 11.5602L67.0208 11.1774ZM62.4131 12.7229V15.8921H62.8131V12.7229H62.4131ZM62.5587 16.0846L70.1935 18.2454L70.3025 17.8605L62.6676 15.6997L62.5587 16.0846ZM70.048 18.0529V20.7035H70.448V18.0529H70.048ZM70.248 20.9035H75.6644V20.5035H70.248V20.9035ZM75.4644 20.7035V22H75.8644V20.7035H75.4644ZM75.6644 21.8H59.0406V22.2H75.6644V21.8ZM59.2406 22V20.7035H58.8406V22H59.2406ZM59.0406 20.9035H66.7619V20.5035H59.0406V20.9035ZM66.9619 20.7035V18.3698H66.5619V20.7035H66.9619ZM66.817 18.1776L59.1822 15.988L59.0719 16.3725L66.7068 18.5621L66.817 18.1776ZM59.327 16.1802V8.68943H58.927V16.1802H59.327ZM59.0012 8.84485L62.4873 11.6683L62.739 11.3575L59.2529 8.53401L59.0012 8.84485ZM62.6753 11.703L70.5983 9.10999L70.4739 8.72983L62.5509 11.3228L62.6753 11.703ZM70.3361 8.91991V12.6365H70.7361V8.91991H70.3361ZM70.4729 12.4468L67.0156 13.5992L67.1421 13.9787L70.5993 12.8262L70.4729 12.4468ZM67.2788 13.7889V11.3688H66.8788V13.7889H67.2788ZM82.8432 0.391928L82.9691 0.236509L82.6432 -0.0274244V0.391928H82.8432ZM86.3294 3.21538L86.2035 3.3708L86.2802 3.43295L86.3762 3.40982L86.3294 3.21538ZM98.2858 0.334307H98.4858V0.0803899L98.239 0.139872L98.2858 0.334307ZM97.6232 19.6951L97.773 19.8277L97.7754 19.8248L97.6232 19.6951ZM95.8657 20.9628L95.7801 20.7821L95.7782 20.783L95.8657 20.9628ZM93.388 21.7407L93.3519 21.544L93.3511 21.5441L93.388 21.7407ZM87.7123 21.7407L87.6754 21.9373L87.6761 21.9374L87.7123 21.7407ZM85.2345 20.9628L85.147 21.1427L85.1489 21.1436L85.2345 20.9628ZM83.5059 19.6951L83.3536 19.8249L83.3561 19.8277L83.5059 19.6951ZM86.6751 19.5223L86.5231 19.6525L86.5285 19.6584L86.6751 19.5223ZM87.6258 20.1849L87.5437 20.3673L87.5471 20.3688L87.6258 20.1849ZM88.9799 20.5883L88.9421 20.7849L88.9506 20.7861L88.9799 20.5883ZM92.1203 20.5883L92.1507 20.786L92.1567 20.7849L92.1203 20.5883ZM93.5032 20.1849L93.582 20.3688L93.582 20.3688L93.5032 20.1849ZM94.454 19.5223L94.3073 19.3861L94.3021 19.3921L94.454 19.5223ZM94.8285 2.63917H95.0285V2.38448L94.7811 2.44487L94.8285 2.63917ZM86.3294 4.71354L86.2819 4.51925L86.1294 4.55649V4.71354H86.3294ZM82.7174 0.547347L86.2035 3.3708L86.4552 3.05996L82.9691 0.236509L82.7174 0.547347ZM86.3762 3.40982L98.3327 0.528742L98.239 0.139872L86.2825 3.02095L86.3762 3.40982ZM98.0858 0.334307V17.8801H98.4858V0.334307H98.0858ZM98.0858 17.8801C98.0858 18.5248 97.8814 19.0836 97.4709 19.5654L97.7754 19.8248C98.2485 19.2695 98.4858 18.6183 98.4858 17.8801H98.0858ZM97.4734 19.5626C97.0529 20.038 96.4906 20.4455 95.7801 20.7821L95.9513 21.1436C96.7006 20.7886 97.3099 20.3511 97.773 19.8277L97.4734 19.5626ZM95.7782 20.783C95.0868 21.1193 94.2788 21.3737 93.3519 21.544L93.4241 21.9374C94.3795 21.7619 95.2233 21.4978 95.9532 21.1427L95.7782 20.783ZM93.3511 21.5441C92.4416 21.7147 91.5128 21.8 90.5645 21.8V22.2C91.537 22.2 92.4905 22.1125 93.4248 21.9373L93.3511 21.5441ZM90.5645 21.8C89.6162 21.8 88.6776 21.7147 87.7484 21.544L87.6761 21.9374C88.6293 22.1125 89.5921 22.2 90.5645 22.2V21.8ZM87.7491 21.5441C86.8414 21.3739 86.0323 21.1194 85.3202 20.7821L85.1489 21.1436C85.8966 21.4977 86.7392 21.7617 87.6754 21.9373L87.7491 21.5441ZM85.322 20.783C84.6307 20.4467 84.0771 20.039 83.6557 19.5626L83.3561 19.8277C83.8182 20.3501 84.417 20.7875 85.147 21.1427L85.322 20.783ZM83.6581 19.5654C83.2477 19.0836 83.0432 18.5248 83.0432 17.8801H82.6432C82.6432 18.6183 82.8806 19.2695 83.3536 19.8248L83.6581 19.5654ZM83.0432 17.8801V0.391928H82.6432V17.8801H83.0432ZM86.1294 18.6003C86.1294 18.9951 86.2625 19.3483 86.5232 19.6524L86.8269 19.3921C86.6267 19.1585 86.5294 18.8971 86.5294 18.6003H86.1294ZM86.5285 19.6584C86.7989 19.9495 87.1388 20.1851 87.5438 20.3673L87.7079 20.0025C87.3446 19.839 87.0507 19.6328 86.8216 19.3862L86.5285 19.6584ZM87.5471 20.3688C87.9655 20.5481 88.4309 20.6863 88.9422 20.7847L89.0177 20.3919C88.5302 20.2981 88.0929 20.1675 87.7046 20.0011L87.5471 20.3688ZM88.9506 20.7861C89.4792 20.8644 90.0172 20.9035 90.5645 20.9035V20.5035C90.0363 20.5035 89.5179 20.4658 89.0093 20.3904L88.9506 20.7861ZM90.5645 20.9035C91.1119 20.9035 91.6407 20.8644 92.1507 20.7859L92.0899 20.3906C91.6012 20.4658 91.0928 20.5035 90.5645 20.5035V20.9035ZM92.1567 20.7849C92.6871 20.6867 93.1627 20.5485 93.582 20.3688L93.4244 20.0011C93.0371 20.1671 92.5908 20.2978 92.0839 20.3916L92.1567 20.7849ZM93.582 20.3688C94.0069 20.1866 94.3512 19.9495 94.6058 19.6524L94.3021 19.3921C94.0958 19.6329 93.8062 19.8375 93.4244 20.0011L93.582 20.3688ZM94.6005 19.6584C94.8823 19.355 95.0285 18.9998 95.0285 18.6003H94.6285C94.6285 18.8923 94.5251 19.1518 94.3074 19.3862L94.6005 19.6584ZM95.0285 18.6003V2.63917H94.6285V18.6003H95.0285ZM94.7811 2.44487L86.2819 4.51925L86.3768 4.90784L94.8759 2.83346L94.7811 2.44487ZM86.1294 4.71354V18.6003H86.5294V4.71354H86.1294ZM107.354 3.30182H107.554V3.00929L107.281 3.11545L107.354 3.30182ZM104.617 4.36781L104.544 4.18145L104.417 4.23107V4.36781H104.617ZM104.617 10.0435H104.417V10.2435H104.617V10.0435ZM107.383 10.0435H107.583V9.84353H107.383V10.0435ZM107.383 11.34V11.54H107.583V11.34H107.383ZM104.617 11.34V11.14H104.417V11.34H104.617ZM104.617 20.7035H104.417V20.9035H104.617V20.7035ZM114.297 20.7035H114.497V20.5035H114.297V20.7035ZM114.297 22V22.2H114.497V22H114.297ZM104.617 22V21.8H104.545L104.489 21.8458L104.617 22ZM101.131 24.8811H100.931V25.3058L101.258 25.0352L101.131 24.8811ZM101.131 11.34H101.331V11.14H101.131V11.34ZM100.295 11.34H100.095V11.54H100.295V11.34ZM100.295 10.0435V9.84353H100.095V10.0435H100.295ZM101.131 10.0435V10.2435H101.331V10.0435H101.131ZM101.131 0.334307L101.257 0.178888L100.931 -0.085045V0.334307H101.131ZM104.617 3.15776L104.491 3.31318L104.58 3.385L104.687 3.34521L104.617 3.15776ZM110.811 0.852901H111.011V0.565086L110.741 0.665457L110.811 0.852901ZM110.811 4.56949L110.874 4.75923L111.011 4.71364V4.56949H110.811ZM107.354 5.72192H107.154V5.99941L107.417 5.91166L107.354 5.72192ZM107.281 3.11545L104.544 4.18145L104.689 4.55418L107.426 3.48818L107.281 3.11545ZM104.417 4.36781V10.0435H104.817V4.36781H104.417ZM104.617 10.2435H107.383V9.84353H104.617V10.2435ZM107.183 10.0435V11.34H107.583V10.0435H107.183ZM107.383 11.14H104.617V11.54H107.383V11.14ZM104.417 11.34V20.7035H104.817V11.34H104.417ZM104.617 20.9035H114.297V20.5035H104.617V20.9035ZM114.097 20.7035V22H114.497V20.7035H114.097ZM114.297 21.8H104.617V22.2H114.297V21.8ZM104.489 21.8458L101.003 24.7269L101.258 25.0352L104.744 22.1542L104.489 21.8458ZM101.331 24.8811V11.34H100.931V24.8811H101.331ZM101.131 11.14H100.295V11.54H101.131V11.14ZM100.495 11.34V10.0435H100.095V11.34H100.495ZM100.295 10.2435H101.131V9.84353H100.295V10.2435ZM101.331 10.0435V0.334307H100.931V10.0435H101.331ZM101.005 0.489726L104.491 3.31318L104.743 3.00234L101.257 0.178888L101.005 0.489726ZM104.687 3.34521L110.881 1.04035L110.741 0.665457L104.547 2.97032L104.687 3.34521ZM110.611 0.852901V4.56949H111.011V0.852901H110.611ZM110.748 4.37975L107.291 5.53218L107.417 5.91166L110.874 4.75923L110.748 4.37975ZM107.554 5.72192V3.30182H107.154V5.72192H107.554ZM125.524 2.66798H125.724V2.46798H125.524V2.66798ZM119.473 2.66798H119.273V2.86798H119.473V2.66798ZM119.473 1.37149V1.17149H119.273V1.37149H119.473ZM127.483 1.37149V1.57149H127.542L127.592 1.53889L127.483 1.37149ZM128.981 0.391928H129.181V0.0222011L128.872 0.224534L128.981 0.391928ZM128.981 1.37149H128.781V1.57149H128.981V1.37149ZM135.06 1.37149H135.26V1.17149H135.06V1.37149ZM135.06 2.66798V2.86798H135.26V2.66798H135.06ZM128.981 2.66798V2.46798H128.781V2.66798H128.981ZM128.981 22L129.091 22.167L129.181 22.1078V22H128.981ZM125.524 24.2761H125.324V24.6472L125.634 24.4431L125.524 24.2761ZM125.524 2.46798H119.473V2.86798H125.524V2.46798ZM119.673 2.66798V1.37149H119.273V2.66798H119.673ZM119.473 1.57149H127.483V1.17149H119.473V1.57149ZM127.592 1.53889L129.09 0.559322L128.872 0.224534L127.373 1.2041L127.592 1.53889ZM128.781 0.391928V1.37149H129.181V0.391928H128.781ZM128.981 1.57149H135.06V1.17149H128.981V1.57149ZM134.86 1.37149V2.66798H135.26V1.37149H134.86ZM135.06 2.46798H128.981V2.86798H135.06V2.46798ZM128.781 2.66798V22H129.181V2.66798H128.781ZM128.871 21.833L125.414 24.109L125.634 24.4431L129.091 22.167L128.871 21.833ZM125.724 24.2761V2.66798H125.324V24.2761H125.724ZM136.61 3.273L136.482 3.11936L136.41 3.17933V3.273H136.61ZM140.067 0.391928H140.267V-0.0350805L139.939 0.238284L140.067 0.391928ZM140.067 9.84186H139.867V9.98355L140.001 10.0305L140.067 9.84186ZM144.821 11.5129L144.754 11.7016L144.86 11.7386L144.946 11.6683L144.821 11.5129ZM148.307 8.68943H148.507V8.27008L148.181 8.53401L148.307 8.68943ZM148.307 20.7035H148.107V20.9035H148.307V20.7035ZM153.521 20.7035H153.721V20.5035H153.521V20.7035ZM153.521 22V22.2H153.721V22H153.521ZM144.821 22H144.621V22.2H144.821V22ZM144.821 12.7229H145.021V12.5804L144.886 12.5339L144.821 12.7229ZM140.067 11.0807L140.132 10.8917L139.867 10.8V11.0807H140.067ZM140.067 22L140.195 22.1536L140.267 22.0937V22H140.067ZM136.61 24.8811H136.41V25.3081L136.738 25.0347L136.61 24.8811ZM136.738 3.42665L140.195 0.545572L139.939 0.238284L136.482 3.11936L136.738 3.42665ZM139.867 0.391928V9.84186H140.267V0.391928H139.867ZM140.001 10.0305L144.754 11.7016L144.887 11.3242L140.133 9.65318L140.001 10.0305ZM144.946 11.6683L148.433 8.84485L148.181 8.53401L144.695 11.3575L144.946 11.6683ZM148.107 8.68943V20.7035H148.507V8.68943H148.107ZM148.307 20.9035H153.521V20.5035H148.307V20.9035ZM153.321 20.7035V22H153.721V20.7035H153.321ZM153.521 21.8H144.821V22.2H153.521V21.8ZM145.021 22V12.7229H144.621V22H145.021ZM144.886 12.5339L140.132 10.8917L140.002 11.2698L144.755 12.912L144.886 12.5339ZM139.867 11.0807V22H140.267V11.0807H139.867ZM139.939 21.8464L136.482 24.7274L136.738 25.0347L140.195 22.1536L139.939 21.8464ZM136.81 24.8811V3.273H136.41V24.8811H136.81ZM168.378 22V22.2H168.578V22H168.378ZM152.647 22H152.447V22.2H152.647V22ZM152.647 8.68943L152.773 8.53401L152.447 8.27008V8.68943H152.647ZM156.134 11.5129L156.008 11.6683L156.093 11.7377L156.198 11.7023L156.134 11.5129ZM163.768 8.91991H163.968V8.64077L163.704 8.73054L163.768 8.91991ZM163.768 16.1514L163.841 16.3378L163.968 16.2883V16.1514H163.768ZM156.134 19.1189L156.061 18.9325L155.934 18.9821V19.1189H156.134ZM156.134 20.7035H155.934V20.9035H156.134V20.7035ZM168.378 20.7035H168.578V20.5035H168.378V20.7035ZM160.311 16.209L160.383 16.3956L160.511 16.3462V16.209H160.311ZM160.311 11.3688H160.511V11.0938L160.249 11.1786L160.311 11.3688ZM156.134 12.7229L156.072 12.5327L155.934 12.5775V12.7229H156.134ZM156.134 17.8224H155.934V18.1141L156.206 18.009L156.134 17.8224ZM168.378 21.8H152.647V22.2H168.378V21.8ZM152.847 22V8.68943H152.447V22H152.847ZM152.522 8.84485L156.008 11.6683L156.259 11.3575L152.773 8.53401L152.522 8.84485ZM156.198 11.7023L163.833 9.10929L163.704 8.73054L156.069 11.3235L156.198 11.7023ZM163.568 8.91991V16.1514H163.968V8.91991H163.568ZM163.696 15.965L156.061 18.9325L156.206 19.3053L163.841 16.3378L163.696 15.965ZM155.934 19.1189V20.7035H156.334V19.1189H155.934ZM156.134 20.9035H168.378V20.5035H156.134V20.9035ZM168.178 20.7035V22H168.578V20.7035H168.178ZM160.511 16.209V11.3688H160.111V16.209H160.511ZM160.249 11.1786L156.072 12.5327L156.195 12.9132L160.373 11.5591L160.249 11.1786ZM155.934 12.7229V17.8224H156.334V12.7229H155.934ZM156.206 18.009L160.383 16.3956L160.239 16.0225L156.061 17.6359L156.206 18.009ZM55.2655 32.0713H55.4655V31.8081L55.2119 31.8786L55.2655 32.0713ZM49.3593 33.7135L49.3057 33.5209L49.1593 33.5616V33.7135H49.3593ZM49.3593 42.1839H49.1593V42.3839H49.3593V42.1839ZM56.6196 42.1839H56.8196V41.9839H56.6196V42.1839ZM56.6196 43.4804V43.6804H56.8196V43.4804H56.6196ZM49.3593 43.4804V43.2804H49.1593V43.4804H49.3593ZM49.3593 51L49.4696 51.1668L49.5593 51.1075V51H49.3593ZM45.8732 53.3049H45.6732V53.6769L45.9835 53.4717L45.8732 53.3049ZM45.8732 29.3919L45.9991 29.2365L45.6732 28.9726V29.3919H45.8732ZM49.3593 32.2154L49.2334 32.3708L49.3134 32.4356L49.4127 32.4081L49.3593 32.2154ZM58.7228 29.6224H58.9228V29.3595L58.6694 29.4297L58.7228 29.6224ZM58.7228 33.339L58.786 33.5287L58.9228 33.4832V33.339H58.7228ZM55.2655 34.4914H55.0655V34.7689L55.3288 34.6812L55.2655 34.4914ZM55.2119 31.8786L49.3057 33.5209L49.4129 33.9062L55.3191 32.264L55.2119 31.8786ZM49.1593 33.7135V42.1839H49.5593V33.7135H49.1593ZM49.3593 42.3839H56.6196V41.9839H49.3593V42.3839ZM56.4196 42.1839V43.4804H56.8196V42.1839H56.4196ZM56.6196 43.2804H49.3593V43.6804H56.6196V43.2804ZM49.1593 43.4804V51H49.5593V43.4804H49.1593ZM49.249 50.8332L45.7629 53.138L45.9835 53.4717L49.4696 51.1668L49.249 50.8332ZM46.0732 53.3049V29.3919H45.6732V53.3049H46.0732ZM45.7473 29.5473L49.2334 32.3708L49.4852 32.06L45.9991 29.2365L45.7473 29.5473ZM49.4127 32.4081L58.7762 29.8152L58.6694 29.4297L49.3059 32.0226L49.4127 32.4081ZM58.5228 29.6224V33.339H58.9228V29.6224H58.5228ZM58.6596 33.1493L55.2023 34.3017L55.3288 34.6812L58.786 33.5287L58.6596 33.1493ZM55.4655 34.4914V32.0713H55.0655V34.4914H55.4655ZM67.6744 48.868H67.8744V48.5591L67.5925 48.6855L67.6744 48.868ZM62.9206 51V51.2H62.9634L63.0025 51.1825L62.9206 51ZM59.4345 51H59.2345V51.2H59.4345V51ZM59.4345 37.6894L59.5604 37.534L59.2345 37.2701V37.6894H59.4345ZM62.9206 40.5129L62.7947 40.6683L62.8815 40.7386L62.9868 40.7016L62.9206 40.5129ZM71.1317 37.6318H71.3317V37.3497L71.0655 37.4431L71.1317 37.6318ZM71.1317 49.7035H70.9317V49.9035H71.1317V49.7035ZM76.3176 49.7035H76.5176V49.5035H76.3176V49.7035ZM76.3176 51V51.2H76.5176V51H76.3176ZM67.6744 51H67.4744V51.2H67.6744V51ZM67.6744 47.6003L67.7553 47.7832L67.8744 47.7305V47.6003H67.6744ZM67.6744 40.0807H67.8744V39.8L67.6091 39.8917L67.6744 40.0807ZM62.9206 41.7229L62.8553 41.5339L62.7206 41.5804V41.7229H62.9206ZM62.9206 49.7035H62.7206V50.0107L63.0015 49.8864L62.9206 49.7035ZM67.5925 48.6855L62.8388 50.8175L63.0025 51.1825L67.7562 49.0505L67.5925 48.6855ZM62.9206 50.8H59.4345V51.2H62.9206V50.8ZM59.6345 51V37.6894H59.2345V51H59.6345ZM59.3086 37.8448L62.7947 40.6683L63.0465 40.3575L59.5604 37.534L59.3086 37.8448ZM62.9868 40.7016L71.1979 37.8205L71.0655 37.4431L62.8544 40.3242L62.9868 40.7016ZM70.9317 37.6318V49.7035H71.3317V37.6318H70.9317ZM71.1317 49.9035H76.3176V49.5035H71.1317V49.9035ZM76.1176 49.7035V51H76.5176V49.7035H76.1176ZM76.3176 50.8H67.6744V51.2H76.3176V50.8ZM67.8744 51V48.868H67.4744V51H67.8744ZM67.8744 47.6003V40.0807H67.4744V47.6003H67.8744ZM67.6091 39.8917L62.8553 41.5339L62.9859 41.912L67.7397 40.2698L67.6091 39.8917ZM62.7206 41.7229V49.7035H63.1206V41.7229H62.7206ZM63.0015 49.8864L67.7553 47.7832L67.5935 47.4174L62.8397 49.5206L63.0015 49.8864ZM75.4436 32.273L75.3156 32.1194L75.2436 32.1793V32.273H75.4436ZM78.9009 29.3919H79.1009V28.9649L78.7729 29.2383L78.9009 29.3919ZM78.9009 49.7035H78.7009V49.9035H78.9009V49.7035ZM84.058 49.7035H84.258V49.5035H84.058V49.7035ZM84.058 51V51.2H84.258V51H84.058ZM78.9009 51V50.8H78.8285L78.7729 50.8464L78.9009 51ZM75.4436 53.8811H75.2436V54.3081L75.5717 54.0347L75.4436 53.8811ZM75.5717 32.4266L79.0289 29.5456L78.7729 29.2383L75.3156 32.1194L75.5717 32.4266ZM78.7009 29.3919V49.7035H79.1009V29.3919H78.7009ZM78.9009 49.9035H84.058V49.5035H78.9009V49.9035ZM83.858 49.7035V51H84.258V49.7035H83.858ZM84.058 50.8H78.9009V51.2H84.058V50.8ZM78.7729 50.8464L75.3156 53.7274L75.5717 54.0347L79.0289 51.1536L78.7729 50.8464ZM75.6436 53.8811V32.273H75.2436V53.8811H75.6436ZM83.1809 32.273L83.0528 32.1194L82.9809 32.1793V32.273H83.1809ZM86.6382 29.3919H86.8382V28.9649L86.5101 29.2383L86.6382 29.3919ZM86.6382 49.7035H86.4382V49.9035H86.6382V49.7035ZM91.7953 49.7035H91.9953V49.5035H91.7953V49.7035ZM91.7953 51V51.2H91.9953V51H91.7953ZM86.6382 51V50.8H86.5658L86.5101 50.8464L86.6382 51ZM83.1809 53.8811H82.9809V54.3081L83.3089 54.0347L83.1809 53.8811ZM83.3089 32.4266L86.7662 29.5456L86.5101 29.2383L83.0528 32.1194L83.3089 32.4266ZM86.4382 29.3919V49.7035H86.8382V29.3919H86.4382ZM86.6382 49.9035H91.7953V49.5035H86.6382V49.9035ZM91.5953 49.7035V51H91.9953V49.7035H91.5953ZM91.7953 50.8H86.6382V51.2H91.7953V50.8ZM86.5101 50.8464L83.0528 53.7274L83.3089 54.0347L86.7662 51.1536L86.5101 50.8464ZM83.3809 53.8811V32.273H82.9809V53.8811H83.3809ZM106.649 51V51.2H106.849V51H106.649ZM90.9181 51H90.7181V51.2H90.9181V51ZM90.9181 37.6894L91.044 37.534L90.7181 37.2701V37.6894H90.9181ZM94.4042 40.5129L94.2784 40.6683L94.3641 40.7377L94.4686 40.7023L94.4042 40.5129ZM102.039 37.9199H102.239V37.6408L101.975 37.7305L102.039 37.9199ZM102.039 45.1514L102.112 45.3378L102.239 45.2883V45.1514H102.039ZM94.4042 48.1189L94.3318 47.9325L94.2042 47.9821V48.1189H94.4042ZM94.4042 49.7035H94.2042V49.9035H94.4042V49.7035ZM106.649 49.7035H106.849V49.5035H106.649V49.7035ZM98.5818 45.209L98.6539 45.3956L98.7818 45.3462V45.209H98.5818ZM98.5818 40.3688H98.7818V40.0938L98.5201 40.1786L98.5818 40.3688ZM94.4042 41.7229L94.3426 41.5327L94.2042 41.5775V41.7229H94.4042ZM94.4042 46.8224H94.2042V47.1141L94.4763 47.009L94.4042 46.8224ZM106.649 50.8H90.9181V51.2H106.649V50.8ZM91.1181 51V37.6894H90.7181V51H91.1181ZM90.7923 37.8448L94.2784 40.6683L94.5301 40.3575L91.044 37.534L90.7923 37.8448ZM94.4686 40.7023L102.103 38.1093L101.975 37.7305L94.3399 40.3235L94.4686 40.7023ZM101.839 37.9199V45.1514H102.239V37.9199H101.839ZM101.967 44.965L94.3318 47.9325L94.4767 48.3053L102.112 45.3378L101.967 44.965ZM94.2042 48.1189V49.7035H94.6042V48.1189H94.2042ZM94.4042 49.9035H106.649V49.5035H94.4042V49.9035ZM106.449 49.7035V51H106.849V49.7035H106.449ZM98.7818 45.209V40.3688H98.3818V45.209H98.7818ZM98.5201 40.1786L94.3426 41.5327L94.4659 41.9132L98.6435 40.5591L98.5201 40.1786ZM94.2042 41.7229V46.8224H94.6042V41.7229H94.2042ZM94.4763 47.009L98.6539 45.3956L98.5098 45.0225L94.3322 46.6359L94.4763 47.009ZM106.027 37.6318L106.093 37.4431L105.827 37.3497V37.6318H106.027ZM114.238 40.5129L114.172 40.7016L114.277 40.7386L114.364 40.6683L114.238 40.5129ZM117.724 37.6894H117.924V37.2701L117.598 37.534L117.724 37.6894ZM117.724 49.7035H117.524V49.9035H117.724V49.7035ZM122.881 49.7035H123.081V49.5035H122.881V49.7035ZM122.881 51V51.2H123.081V51H122.881ZM114.238 51H114.038V51.2H114.238V51ZM114.238 41.7229H114.438V41.5804L114.303 41.5339L114.238 41.7229ZM109.484 40.0807L109.55 39.8917L109.284 39.8V40.0807H109.484ZM109.484 51L109.612 51.1536L109.684 51.0937V51H109.484ZM106.027 53.8811H105.827V54.3081L106.155 54.0347L106.027 53.8811ZM105.961 37.8205L114.172 40.7016L114.304 40.3242L106.093 37.4431L105.961 37.8205ZM114.364 40.6683L117.85 37.8448L117.598 37.534L114.112 40.3575L114.364 40.6683ZM117.524 37.6894V49.7035H117.924V37.6894H117.524ZM117.724 49.9035H122.881V49.5035H117.724V49.9035ZM122.681 49.7035V51H123.081V49.7035H122.681ZM122.881 50.8H114.238V51.2H122.881V50.8ZM114.438 51V41.7229H114.038V51H114.438ZM114.303 41.5339L109.55 39.8917L109.419 40.2698L114.173 41.912L114.303 41.5339ZM109.284 40.0807V51H109.684V40.0807H109.284ZM109.356 50.8464L105.899 53.7274L106.155 54.0347L109.612 51.1536L109.356 50.8464ZM106.227 53.8811V37.6318H105.827V53.8811H106.227Z" fill="url(#paint1_linear_3_39)"/>
<defs>
<linearGradient id="paint0_linear_3_39" x1="89.0498" y1="55.5781" x2="89.0498" y2="4.47387e-07" gradientUnits="userSpaceOnUse">
<stop stop-color="#EAECE0"/>
<stop offset="1" stop-color="#F5A978"/>
</linearGradient>
<linearGradient id="paint1_linear_3_39" x1="82.5" y1="0" x2="82.5" y2="57.815" gradientUnits="userSpaceOnUse">
<stop stop-color="#F5AC7C"/>
<stop offset="1" stop-color="#EBE6D6"/>
</linearGradient>
</defs>
</svg>
