<svg width="203" height="68" viewBox="0 0 203 68" fill="none" xmlns="http://www.w3.org/2000/svg">
<path d="M40.9745 50.0048L37.937 52.5922H39.5763L34.305 62.4116H45.5386L48.5761 59.8242H39.3834L41.6334 59.2135L46.5833 50.0048H40.9745ZM69.8651 53.5725L71.7775 50.0048H56.6386L53.6012 52.5922H55.2565L51.078 60.3706L52.0583 62.4116H65.6866L66.7955 60.3385L67.5348 58.9724L67.9848 58.1206H62.376L61.7492 59.2938L60.8653 59.8724H56.96L58.1654 57.6385L55.144 57.06L58.4868 57.0439H58.6796L59.7082 57.0278L59.676 57.0439H62.6331L63.9991 54.4886H59.8528L60.576 53.1386L60.5599 53.1547L57.5386 52.5761L62.0867 52.544L62.0706 52.5601H64.2241L64.4974 53.1386L64.2724 53.5725H69.8651ZM76.2974 59.8724L79.9134 53.1547L76.9081 52.5761C79.1741 52.5601 81.3437 52.5601 83.5615 52.5601L83.8347 53.1386L83.6097 53.5725H89.2025L90.006 52.0779L89.0418 50.0048H75.9921L72.9546 52.5922H74.5939L70.4315 60.3385L70.4154 60.3706H70.4475L71.3957 62.4116H85.024L89.2668 54.4886H82.8383L79.8009 57.076H82.2758L81.0866 59.2938L81.0544 59.326L83.8829 59.8885C81.3276 59.8724 78.8366 59.8724 76.2974 59.8724ZM108.587 53.5725L110.499 50.0048H95.3604L92.323 52.5922H93.9783L89.7999 60.3706L90.7802 62.4116H104.408L105.517 60.3385L106.257 58.9724L106.707 58.1206H101.098L100.471 59.2938L99.5871 59.8724H95.6819L96.8872 57.6385L93.8658 57.06L97.2086 57.0439H97.4015L98.43 57.0278L98.3979 57.0439H101.355L102.721 54.4886H98.5747L99.2979 53.1386L99.2818 53.1547L96.2604 52.5761L100.809 52.544L100.792 52.5601H102.946L103.219 53.1386L102.994 53.5725H108.587ZM118.153 62.4116H125.257L130.56 52.544L132.344 50.0048H126.301L122.798 56.5457L122.38 59.9849L122.01 50.0048H114.73L111.693 52.5922H113.332L108.06 62.4116H113.669L117.414 55.4689L117.783 52.6565L118.153 62.4116ZM140.366 52.5601L141.587 52.544L141.571 52.5601H142.745L143.661 54.4243C142.793 56.0475 141.925 57.6707 141.073 59.2778L141.057 59.2938L144.014 59.8885L139.482 59.8724H137.007L136.734 59.2938L140.045 53.1547L137.039 52.5761L140.366 52.5601ZM136.123 50.0048L133.086 52.5922H134.725C132.973 55.8707 131.206 59.1331 129.454 62.4116H142.905L146.103 60.3385C147.357 58.0081 148.611 55.6778 149.864 53.3315L148.225 50.0048H136.123ZM152.615 55.035L161.454 57.7189L160.249 59.2456L163.254 59.8081C160.747 59.8242 158.385 59.8242 155.91 59.8242L156.087 59.0367L156.73 57.8314H151.121L150.414 59.1653L149.706 62.4116H164.235L166.485 59.1653L167.77 55.7582L159.237 53.2511L159.317 53.1386L156.521 52.6083C158.835 52.5922 161.037 52.5922 163.319 52.5922L163.142 53.3797H168.751L170.133 50.0048H155.331L152.294 52.5922H154.19L154.062 52.7368L153.515 53.3636L152.615 55.035Z" fill="url(#paint0_linear_3_43)"/>
<path d="M40.9745 50.0048V49.7075H40.865L40.7817 49.7785L40.9745 50.0048ZM37.937 52.5922L37.7443 52.3659L37.1297 52.8894H37.937V52.5922ZM39.5763 52.5922L39.8382 52.7328L40.0732 52.295H39.5763V52.5922ZM34.305 62.4116L34.0431 62.271L33.8081 62.7089H34.305V62.4116ZM45.5386 62.4116V62.7089H45.6481L45.7314 62.6379L45.5386 62.4116ZM48.5761 59.8242L48.7688 60.0504L49.3834 59.5269H48.5761V59.8242ZM39.3834 59.8242L39.3056 59.5373L39.3834 60.1214V59.8242ZM41.6334 59.2135L41.7112 59.5003L41.8346 59.4668L41.8952 59.3542L41.6334 59.2135ZM46.5833 50.0048L46.8451 50.1455L47.0805 49.7075H46.5833V50.0048ZM40.7817 49.7785L37.7443 52.3659L38.1298 52.8185L41.1672 50.231L40.7817 49.7785ZM37.937 52.8894H39.5763V52.295H37.937V52.8894ZM39.3144 52.4516L34.0431 62.271L34.5669 62.5522L39.8382 52.7328L39.3144 52.4516ZM34.305 62.7089H45.5386V62.1144H34.305V62.7089ZM45.7314 62.6379L48.7688 60.0504L48.3833 59.5979L45.3459 62.1854L45.7314 62.6379ZM48.5761 59.5269H39.3834V60.1214H48.5761V59.5269ZM39.4613 60.111L41.7112 59.5003L41.5555 58.9266L39.3056 59.5373L39.4613 60.111ZM41.8952 59.3542L46.8451 50.1455L46.3215 49.864L41.3716 59.0728L41.8952 59.3542ZM46.5833 49.7075H40.9745V50.302H46.5833V49.7075ZM69.8651 53.5725V53.8698H70.043L70.1271 53.713L69.8651 53.5725ZM71.7775 50.0048L72.0395 50.1452L72.2741 49.7075H71.7775V50.0048ZM56.6386 50.0048V49.7075H56.5292L56.4459 49.7785L56.6386 50.0048ZM53.6012 52.5922L53.4084 52.3659L52.7939 52.8894H53.6012V52.5922ZM55.2565 52.5922L55.5183 52.7329L55.7536 52.295H55.2565V52.5922ZM51.078 60.3706L50.8162 60.2299L50.7447 60.3631L50.8101 60.4993L51.078 60.3706ZM52.0583 62.4116L51.7904 62.5403L51.8714 62.7089H52.0583V62.4116ZM65.6866 62.4116V62.7089H65.8647L65.9487 62.5518L65.6866 62.4116ZM66.7955 60.3385L66.5341 60.197L66.5334 60.1983L66.7955 60.3385ZM67.5348 58.9724L67.7962 59.1139L67.7976 59.1113L67.5348 58.9724ZM67.9848 58.1206L68.2476 58.2595L68.478 57.8234H67.9848V58.1206ZM62.376 58.1206V57.8234H62.1978L62.1138 57.9806L62.376 58.1206ZM61.7492 59.2938L61.912 59.5425L61.9756 59.5009L62.0114 59.4339L61.7492 59.2938ZM60.8653 59.8724V60.1696H60.9539L61.0281 60.1211L60.8653 59.8724ZM56.96 59.8724L56.6984 59.7313L56.4619 60.1696H56.96V59.8724ZM58.1654 57.6385L58.4269 57.7797L58.6195 57.4228L58.2213 57.3466L58.1654 57.6385ZM55.144 57.06L55.1426 56.7627L55.0881 57.3519L55.144 57.06ZM58.4868 57.0439L58.4868 56.7466L58.4853 56.7467L58.4868 57.0439ZM58.6796 57.0439V57.3412L58.6843 57.3411L58.6796 57.0439ZM59.7082 57.0278L59.8411 57.2937L59.7035 56.7306L59.7082 57.0278ZM59.676 57.0439L59.5431 56.778L59.676 57.3411V57.0439ZM62.6331 57.0439V57.3411H62.8113L62.8952 57.184L62.6331 57.0439ZM63.9991 54.4886L64.2613 54.6287L64.4951 54.1914H63.9991V54.4886ZM59.8528 54.4886L59.5908 54.3482L59.3564 54.7858H59.8528V54.4886ZM60.576 53.1386L60.838 53.279L60.3658 52.9284L60.576 53.1386ZM60.5599 53.1547L60.504 53.4466L60.6587 53.4762L60.7701 53.3649L60.5599 53.1547ZM57.5386 52.5761L57.5365 52.2789L57.4827 52.8681L57.5386 52.5761ZM62.0867 52.544L62.2969 52.7542L62.8094 52.2416L62.0846 52.2468L62.0867 52.544ZM62.0706 52.5601L61.8604 52.3499L61.353 52.8573H62.0706V52.5601ZM64.2241 52.5601L64.4929 52.4331L64.4125 52.2628H64.2241V52.5601ZM64.4974 53.1386L64.7612 53.2754L64.829 53.1448L64.7661 53.0117L64.4974 53.1386ZM64.2724 53.5725L64.0085 53.4357L63.7834 53.8698H64.2724V53.5725ZM70.1271 53.713L72.0395 50.1452L71.5156 49.8643L69.6031 53.4321L70.1271 53.713ZM71.7775 49.7075H56.6386V50.302H71.7775V49.7075ZM56.4459 49.7785L53.4084 52.3659L53.7939 52.8185L56.8313 50.231L56.4459 49.7785ZM53.6012 52.8894H55.2565V52.295H53.6012V52.8894ZM54.9946 52.4515L50.8162 60.2299L51.3399 60.5113L55.5183 52.7329L54.9946 52.4515ZM50.8101 60.4993L51.7904 62.5403L52.3263 62.2829L51.3459 60.2419L50.8101 60.4993ZM52.0583 62.7089H65.6866V62.1144H52.0583V62.7089ZM65.9487 62.5518L67.0576 60.4786L66.5334 60.1983L65.4245 62.2714L65.9487 62.5518ZM67.0569 60.4799L67.7962 59.1139L67.2734 58.8309L66.5341 60.197L67.0569 60.4799ZM67.7976 59.1113L68.2476 58.2595L67.722 57.9818L67.272 58.8336L67.7976 59.1113ZM67.9848 57.8234H62.376V58.4179H67.9848V57.8234ZM62.1138 57.9806L61.487 59.1538L62.0114 59.4339L62.6381 58.2607L62.1138 57.9806ZM61.5864 59.0451L60.7025 59.6237L61.0281 60.1211L61.912 59.5425L61.5864 59.0451ZM60.8653 59.5752H56.96V60.1696H60.8653V59.5752ZM57.2216 60.0135L58.4269 57.7797L57.9038 57.4974L56.6984 59.7313L57.2216 60.0135ZM58.2213 57.3466L55.1999 56.768L55.0881 57.3519L58.1095 57.9304L58.2213 57.3466ZM55.1454 57.3572L58.4882 57.3411L58.4853 56.7467L55.1426 56.7627L55.1454 57.3572ZM58.4868 57.3411H58.6796V56.7467H58.4868V57.3411ZM58.6843 57.3411L59.7128 57.325L59.7035 56.7306L58.675 56.7467L58.6843 57.3411ZM59.5752 56.762L59.5431 56.778L59.809 57.3097L59.8411 57.2937L59.5752 56.762ZM59.676 57.3411H62.6331V56.7467H59.676V57.3411ZM62.8952 57.184L64.2613 54.6287L63.737 54.3485L62.371 56.9038L62.8952 57.184ZM63.9991 54.1914H59.8528V54.7858H63.9991V54.1914ZM60.1148 54.6289L60.838 53.279L60.314 52.9983L59.5908 54.3482L60.1148 54.6289ZM60.3658 52.9284L60.3498 52.9445L60.7701 53.3649L60.7862 53.3488L60.3658 52.9284ZM60.6158 52.8628L57.5945 52.2842L57.4827 52.8681L60.504 53.4466L60.6158 52.8628ZM57.5407 52.8734L62.0888 52.8412L62.0846 52.2468L57.5365 52.2789L57.5407 52.8734ZM61.8765 52.3338L61.8604 52.3499L62.2808 52.7702L62.2969 52.7542L61.8765 52.3338ZM62.0706 52.8573H64.2241V52.2628H62.0706V52.8573ZM63.9554 52.687L64.2286 53.2655L64.7661 53.0117L64.4929 52.4331L63.9554 52.687ZM64.2335 53.0018L64.0085 53.4357L64.5362 53.7094L64.7612 53.2754L64.2335 53.0018ZM64.2724 53.8698H69.8651V53.2753H64.2724V53.8698ZM76.2974 59.8724L76.0357 59.7315L75.7999 60.1696H76.2974V59.8724ZM79.9134 53.1547L80.1751 53.2956L80.3669 52.9393L79.9696 52.8628L79.9134 53.1547ZM76.9081 52.5761L76.906 52.2789L76.8519 52.868L76.9081 52.5761ZM83.5615 52.5601L83.8303 52.4331L83.7499 52.2628H83.5615V52.5601ZM83.8347 53.1386L84.0986 53.2754L84.1664 53.1448L84.1035 53.0117L83.8347 53.1386ZM83.6097 53.5725L83.3459 53.4357L83.1208 53.8698H83.6097V53.5725ZM89.2025 53.5725V53.8698H89.3801L89.4643 53.7133L89.2025 53.5725ZM90.006 52.0779L90.2678 52.2187L90.3383 52.0876L90.2755 51.9526L90.006 52.0779ZM89.0418 50.0048L89.3113 49.8794L89.2313 49.7075H89.0418V50.0048ZM75.9921 50.0048V49.7075H75.8826L75.7993 49.7785L75.9921 50.0048ZM72.9546 52.5922L72.7619 52.3659L72.1473 52.8894H72.9546V52.5922ZM74.5939 52.5922L74.8557 52.7329L75.091 52.295H74.5939V52.5922ZM70.4315 60.3385L70.1695 60.1977L70.1656 60.2055L70.4315 60.3385ZM70.4154 60.3706L70.1495 60.2377L69.9345 60.6678H70.4154V60.3706ZM70.4475 60.3706L70.7171 60.2454L70.6372 60.0734H70.4475V60.3706ZM71.3957 62.4116L71.1262 62.5369L71.2061 62.7089H71.3957V62.4116ZM85.024 62.4116V62.7089H85.202L85.286 62.5519L85.024 62.4116ZM89.2668 54.4886L89.5288 54.6289L89.7631 54.1914H89.2668V54.4886ZM82.8383 54.4886V54.1914H82.7289L82.6456 54.2623L82.8383 54.4886ZM79.8009 57.076L79.6082 56.8498L78.9936 57.3733H79.8009V57.076ZM82.2758 57.076L82.5378 57.2165L82.7725 56.7788H82.2758V57.076ZM81.0866 59.2938L81.2968 59.504L81.3278 59.473L81.3485 59.4343L81.0866 59.2938ZM81.0544 59.326L80.8443 59.1158L80.451 59.509L80.9965 59.6175L81.0544 59.326ZM83.8829 59.8885L83.8811 60.1857L83.9409 59.5969L83.8829 59.8885ZM76.5591 60.0133L80.1751 53.2956L79.6517 53.0138L76.0357 59.7315L76.5591 60.0133ZM79.9696 52.8628L76.9643 52.2843L76.8519 52.868L79.8572 53.4466L79.9696 52.8628ZM76.9102 52.8734C79.175 52.8573 81.3436 52.8573 83.5615 52.8573V52.2628C81.3439 52.2628 79.1732 52.2628 76.906 52.2789L76.9102 52.8734ZM83.2928 52.687L83.566 53.2655L84.1035 53.0117L83.8303 52.4331L83.2928 52.687ZM83.5709 53.0018L83.3459 53.4357L83.8736 53.7094L84.0986 53.2754L83.5709 53.0018ZM83.6097 53.8698H89.2025V53.2753H83.6097V53.8698ZM89.4643 53.7133L90.2678 52.2187L89.7442 51.9372L88.9407 53.4318L89.4643 53.7133ZM90.2755 51.9526L89.3113 49.8794L88.7722 50.1301L89.7365 52.2033L90.2755 51.9526ZM89.0418 49.7075H75.9921V50.302H89.0418V49.7075ZM75.7993 49.7785L72.7619 52.3659L73.1474 52.8185L76.1848 50.231L75.7993 49.7785ZM72.9546 52.8894H74.5939V52.295H72.9546V52.8894ZM74.332 52.4515L70.1696 60.1978L70.6933 60.4791L74.8557 52.7329L74.332 52.4515ZM70.1656 60.2055L70.1495 60.2377L70.6813 60.5035L70.6973 60.4714L70.1656 60.2055ZM70.4154 60.6678H70.4475V60.0734H70.4154V60.6678ZM70.178 60.4958L71.1262 62.5369L71.6653 62.2864L70.7171 60.2454L70.178 60.4958ZM71.3957 62.7089H85.024V62.1144H71.3957V62.7089ZM85.286 62.5519L89.5288 54.6289L89.0047 54.3483L84.762 62.2713L85.286 62.5519ZM89.2668 54.1914H82.8383V54.7858H89.2668V54.1914ZM82.6456 54.2623L79.6082 56.8498L79.9936 57.3023L83.0311 54.7149L82.6456 54.2623ZM79.8009 57.3733H82.2758V56.7788H79.8009V57.3733ZM82.0139 56.9356L80.8246 59.1534L81.3485 59.4343L82.5378 57.2165L82.0139 56.9356ZM80.8764 59.0837L80.8443 59.1158L81.2646 59.5362L81.2968 59.504L80.8764 59.0837ZM80.9965 59.6175L83.825 60.18L83.9409 59.5969L81.1124 59.0345L80.9965 59.6175ZM83.8848 59.5912C81.3284 59.5752 78.8365 59.5752 76.2974 59.5752V60.1696C78.8368 60.1696 81.3269 60.1696 83.8811 60.1857L83.8848 59.5912ZM108.587 53.5725V53.8698H108.765L108.849 53.713L108.587 53.5725ZM110.499 50.0048L110.761 50.1452L110.996 49.7075H110.499V50.0048ZM95.3604 50.0048V49.7075H95.251L95.1677 49.7785L95.3604 50.0048ZM92.323 52.5922L92.1303 52.3659L91.5157 52.8894H92.323V52.5922ZM93.9783 52.5922L94.2402 52.7329L94.4754 52.295H93.9783V52.5922ZM89.7999 60.3706L89.538 60.2299L89.4665 60.3631L89.5319 60.4993L89.7999 60.3706ZM90.7802 62.4116L90.5123 62.5403L90.5932 62.7089H90.7802V62.4116ZM104.408 62.4116V62.7089H104.587L104.671 62.5518L104.408 62.4116ZM105.517 60.3385L105.256 60.197L105.255 60.1983L105.517 60.3385ZM106.257 58.9724L106.518 59.1139L106.519 59.1113L106.257 58.9724ZM106.707 58.1206L106.969 58.2595L107.2 57.8234H106.707V58.1206ZM101.098 58.1206V57.8234H100.92L100.836 57.9806L101.098 58.1206ZM100.471 59.2938L100.634 59.5425L100.697 59.5009L100.733 59.4339L100.471 59.2938ZM99.5871 59.8724V60.1696H99.6758L99.7499 60.1211L99.5871 59.8724ZM95.6819 59.8724L95.4203 59.7313L95.1837 60.1696H95.6819V59.8724ZM96.8872 57.6385L97.1488 57.7797L97.3413 57.4228L96.9431 57.3466L96.8872 57.6385ZM93.8658 57.06L93.8644 56.7627L93.8099 57.3519L93.8658 57.06ZM97.2086 57.0439V56.7466L97.2072 56.7467L97.2086 57.0439ZM97.4015 57.0439V57.3412L97.4061 57.3411L97.4015 57.0439ZM98.43 57.0278L98.5629 57.2937L98.4254 56.7306L98.43 57.0278ZM98.3979 57.0439L98.2649 56.778L98.3979 57.3411V57.0439ZM101.355 57.0439V57.3411H101.533L101.617 57.184L101.355 57.0439ZM102.721 54.4886L102.983 54.6287L103.217 54.1914H102.721V54.4886ZM98.5747 54.4886L98.3127 54.3482L98.0782 54.7858H98.5747V54.4886ZM99.2979 53.1386L99.5599 53.279L99.0877 52.9284L99.2979 53.1386ZM99.2818 53.1547L99.2259 53.4466L99.3806 53.4762L99.492 53.3649L99.2818 53.1547ZM96.2604 52.5761L96.2583 52.2789L96.2045 52.8681L96.2604 52.5761ZM100.809 52.544L101.019 52.7542L101.531 52.2416L100.806 52.2468L100.809 52.544ZM100.792 52.5601L100.582 52.3499L100.075 52.8573H100.792V52.5601ZM102.946 52.5601L103.215 52.4331L103.134 52.2628H102.946V52.5601ZM103.219 53.1386L103.483 53.2754L103.551 53.1448L103.488 53.0117L103.219 53.1386ZM102.994 53.5725L102.73 53.4357L102.505 53.8698H102.994V53.5725ZM108.849 53.713L110.761 50.1452L110.237 49.8643L108.325 53.4321L108.849 53.713ZM110.499 49.7075H95.3604V50.302H110.499V49.7075ZM95.1677 49.7785L92.1303 52.3659L92.5158 52.8185L95.5532 50.231L95.1677 49.7785ZM92.323 52.8894H93.9783V52.295H92.323V52.8894ZM93.7165 52.4515L89.538 60.2299L90.0617 60.5113L94.2402 52.7329L93.7165 52.4515ZM89.5319 60.4993L90.5123 62.5403L91.0481 62.2829L90.0678 60.2419L89.5319 60.4993ZM90.7802 62.7089H104.408V62.1144H90.7802V62.7089ZM104.671 62.5518L105.779 60.4786L105.255 60.1983L104.146 62.2714L104.671 62.5518ZM105.779 60.4799L106.518 59.1139L105.995 58.8309L105.256 60.197L105.779 60.4799ZM106.519 59.1113L106.969 58.2595L106.444 57.9818L105.994 58.8336L106.519 59.1113ZM106.707 57.8234H101.098V58.4179H106.707V57.8234ZM100.836 57.9806L100.209 59.1538L100.733 59.4339L101.36 58.2607L100.836 57.9806ZM100.308 59.0451L99.4244 59.6237L99.7499 60.1211L100.634 59.5425L100.308 59.0451ZM99.5871 59.5752H95.6819V60.1696H99.5871V59.5752ZM95.9434 60.0135L97.1488 57.7797L96.6256 57.4974L95.4203 59.7313L95.9434 60.0135ZM96.9431 57.3466L93.9217 56.768L93.8099 57.3519L96.8313 57.9304L96.9431 57.3466ZM93.8673 57.3572L97.21 57.3411L97.2072 56.7467L93.8644 56.7627L93.8673 57.3572ZM97.2086 57.3411H97.4015V56.7467H97.2086V57.3411ZM97.4061 57.3411L98.4347 57.325L98.4254 56.7306L97.3968 56.7467L97.4061 57.3411ZM98.2971 56.762L98.2649 56.778L98.5308 57.3097L98.5629 57.2937L98.2971 56.762ZM98.3979 57.3411H101.355V56.7467H98.3979V57.3411ZM101.617 57.184L102.983 54.6287L102.459 54.3485L101.093 56.9038L101.617 57.184ZM102.721 54.1914H98.5747V54.7858H102.721V54.1914ZM98.8367 54.6289L99.5599 53.279L99.0358 52.9983L98.3127 54.3482L98.8367 54.6289ZM99.0877 52.9284L99.0716 52.9445L99.492 53.3649L99.508 53.3488L99.0877 52.9284ZM99.3377 52.8628L96.3163 52.2842L96.2045 52.8681L99.2259 53.4466L99.3377 52.8628ZM96.2625 52.8734L100.811 52.8412L100.806 52.2468L96.2583 52.2789L96.2625 52.8734ZM100.598 52.3338L100.582 52.3499L101.003 52.7702L101.019 52.7542L100.598 52.3338ZM100.792 52.8573H102.946V52.2628H100.792V52.8573ZM102.677 52.687L102.95 53.2655L103.488 53.0117L103.215 52.4331L102.677 52.687ZM102.955 53.0018L102.73 53.4357L103.258 53.7094L103.483 53.2754L102.955 53.0018ZM102.994 53.8698H108.587V53.2753H102.994V53.8698ZM118.153 62.4116L117.856 62.4229L117.867 62.7089H118.153V62.4116ZM125.257 62.4116V62.7089H125.434L125.518 62.5523L125.257 62.4116ZM130.56 52.544L130.317 52.3731L130.307 52.3876L130.298 52.4033L130.56 52.544ZM132.344 50.0048L132.587 50.1756L132.916 49.7075H132.344V50.0048ZM126.301 50.0048V49.7075H126.123L126.039 49.8644L126.301 50.0048ZM122.798 56.5457L122.536 56.4053L122.509 56.4545L122.503 56.5098L122.798 56.5457ZM122.38 59.9849L122.083 59.9959L122.675 60.0207L122.38 59.9849ZM122.01 50.0048L122.307 49.9938L122.297 49.7075H122.01V50.0048ZM114.73 50.0048V49.7075H114.621L114.537 49.7785L114.73 50.0048ZM111.693 52.5922L111.5 52.3659L110.885 52.8894H111.693V52.5922ZM113.332 52.5922L113.594 52.7328L113.829 52.295H113.332V52.5922ZM108.06 62.4116L107.799 62.271L107.564 62.7089H108.06V62.4116ZM113.669 62.4116V62.7089H113.847L113.931 62.5527L113.669 62.4116ZM117.414 55.4689L117.675 55.61L117.701 55.5619L117.709 55.5077L117.414 55.4689ZM117.783 52.6565L118.08 52.6452L117.489 52.6178L117.783 52.6565ZM118.153 62.7089H125.257V62.1144H118.153V62.7089ZM125.518 62.5523L130.822 52.6847L130.298 52.4033L124.995 62.2709L125.518 62.5523ZM130.803 52.7149L132.587 50.1756L132.101 49.8339L130.317 52.3731L130.803 52.7149ZM132.344 49.7075H126.301V50.302H132.344V49.7075ZM126.039 49.8644L122.536 56.4053L123.06 56.686L126.563 50.1451L126.039 49.8644ZM122.503 56.5098L122.085 59.949L122.675 60.0207L123.093 56.5815L122.503 56.5098ZM122.677 59.9739L122.307 49.9938L121.713 50.0158L122.083 59.9959L122.677 59.9739ZM122.01 49.7075H114.73V50.302H122.01V49.7075ZM114.537 49.7785L111.5 52.3659L111.885 52.8185L114.923 50.231L114.537 49.7785ZM111.693 52.8894H113.332V52.295H111.693V52.8894ZM113.07 52.4516L107.799 62.271L108.322 62.5522L113.594 52.7328L113.07 52.4516ZM108.06 62.7089H113.669V62.1144H108.06V62.7089ZM113.931 62.5527L117.675 55.61L117.152 55.3278L113.408 62.2705L113.931 62.5527ZM117.709 55.5077L118.078 52.6952L117.489 52.6178L117.119 55.4302L117.709 55.5077ZM117.486 52.6677L117.856 62.4229L118.45 62.4004L118.08 52.6452L117.486 52.6677ZM140.366 52.5601L140.368 52.8573L140.37 52.8573L140.366 52.5601ZM141.587 52.544L141.798 52.7542L142.315 52.2372L141.584 52.2468L141.587 52.544ZM141.571 52.5601L141.361 52.3499L140.854 52.8573H141.571V52.5601ZM142.745 52.5601L143.011 52.429L142.93 52.2628H142.745V52.5601ZM143.661 54.4243L143.923 54.5644L143.995 54.43L143.927 54.2932L143.661 54.4243ZM141.073 59.2778L141.283 59.4879L141.315 59.4564L141.336 59.417L141.073 59.2778ZM141.057 59.2938L140.847 59.0837L140.455 59.4759L140.999 59.5852L141.057 59.2938ZM144.014 59.8885L144.013 60.1857L144.073 59.5971L144.014 59.8885ZM139.482 59.8724L139.483 59.5752H139.482V59.8724ZM137.007 59.8724L136.738 59.9993L136.819 60.1696H137.007V59.8724ZM136.734 59.2938L136.472 59.1528L136.401 59.2849L136.465 59.4208L136.734 59.2938ZM140.045 53.1547L140.306 53.2958L140.498 52.9394L140.101 52.8628L140.045 53.1547ZM137.039 52.5761L137.038 52.2789L136.983 52.868L137.039 52.5761ZM136.123 50.0048V49.7075H136.014L135.931 49.7785L136.123 50.0048ZM133.086 52.5922L132.893 52.3659L132.279 52.8894H133.086V52.5922ZM134.725 52.5922L134.987 52.7323L135.221 52.295H134.725V52.5922ZM129.454 62.4116L129.192 62.2715L128.958 62.7089H129.454V62.4116ZM142.905 62.4116V62.7089H142.993L143.067 62.661L142.905 62.4116ZM146.103 60.3385L146.265 60.5879L146.329 60.5464L146.365 60.4793L146.103 60.3385ZM149.864 53.3315L150.126 53.4715L150.198 53.337L150.131 53.2001L149.864 53.3315ZM148.225 50.0048L148.491 49.8734L148.41 49.7075H148.225V50.0048ZM140.37 52.8573L141.591 52.8412L141.584 52.2468L140.362 52.2629L140.37 52.8573ZM141.377 52.3338L141.361 52.3499L141.782 52.7702L141.798 52.7542L141.377 52.3338ZM141.571 52.8573H142.745V52.2628H141.571V52.8573ZM142.478 52.6911L143.394 54.5554L143.927 54.2932L143.011 52.429L142.478 52.6911ZM143.399 54.2842C142.531 55.9073 141.663 57.5309 140.811 59.1386L141.336 59.417C142.187 57.8104 143.055 56.1877 143.923 54.5644L143.399 54.2842ZM140.863 59.0676L140.847 59.0837L141.267 59.504L141.283 59.4879L140.863 59.0676ZM140.999 59.5852L143.956 60.1799L144.073 59.5971L141.116 59.0024L140.999 59.5852ZM144.015 59.5912L139.483 59.5752L139.481 60.1696L144.013 60.1857L144.015 59.5912ZM139.482 59.5752H137.007V60.1696H139.482V59.5752ZM137.276 59.7455L137.003 59.1669L136.465 59.4208L136.738 59.9993L137.276 59.7455ZM136.996 59.4349L140.306 53.2958L139.783 53.0136L136.472 59.1528L136.996 59.4349ZM140.101 52.8628L137.096 52.2843L136.983 52.868L139.988 53.4466L140.101 52.8628ZM137.041 52.8734L140.368 52.8573L140.365 52.2628L137.038 52.2789L137.041 52.8734ZM135.931 49.7785L132.893 52.3659L133.279 52.8185L136.316 50.231L135.931 49.7785ZM133.086 52.8894H134.725V52.295H133.086V52.8894ZM134.463 52.4521C133.587 54.0909 132.708 55.7258 131.828 57.3611C130.948 58.9962 130.068 60.6319 129.192 62.2715L129.716 62.5517C130.592 60.9129 131.471 59.278 132.351 57.6428C133.231 56.0076 134.111 54.372 134.987 52.7323L134.463 52.4521ZM129.454 62.7089H142.905V62.1144H129.454V62.7089ZM143.067 62.661L146.265 60.5879L145.942 60.089L142.744 62.1622L143.067 62.661ZM146.365 60.4793C147.619 58.149 148.872 55.8183 150.126 53.4715L149.602 53.1914C148.349 55.5373 147.095 57.8673 145.842 60.1976L146.365 60.4793ZM150.131 53.2001L148.491 49.8734L147.958 50.1361L149.597 53.4628L150.131 53.2001ZM148.225 49.7075H136.123V50.302H148.225V49.7075ZM152.615 55.035L152.354 54.8941L152.181 55.2139L152.529 55.3194L152.615 55.035ZM161.454 57.7189L161.688 57.903L161.958 57.5611L161.541 57.4345L161.454 57.7189ZM160.249 59.2456L160.016 59.0614L159.711 59.4473L160.194 59.5378L160.249 59.2456ZM163.254 59.8081L163.256 60.1053L163.309 59.5159L163.254 59.8081ZM155.91 59.8242L155.62 59.7591L155.539 60.1214H155.91V59.8242ZM156.087 59.0367L155.824 58.8968L155.806 58.9323L155.797 58.9716L156.087 59.0367ZM156.73 57.8314L156.992 57.9712L157.225 57.5341H156.73V57.8314ZM151.121 57.8314V57.5341H150.942L150.858 57.6922L151.121 57.8314ZM150.414 59.1653L150.151 59.026L150.132 59.0621L150.123 59.102L150.414 59.1653ZM149.706 62.4116L149.416 62.3484L149.338 62.7089H149.706V62.4116ZM164.235 62.4116V62.7089H164.39L164.479 62.5809L164.235 62.4116ZM166.485 59.1653L166.729 59.3346L166.75 59.3045L166.763 59.2702L166.485 59.1653ZM167.77 55.7582L168.048 55.8631L168.162 55.5633L167.854 55.473L167.77 55.7582ZM159.237 53.2511L158.995 53.0784L158.752 53.4185L159.153 53.5363L159.237 53.2511ZM159.317 53.1386L159.559 53.3114L159.829 52.9332L159.372 52.8466L159.317 53.1386ZM156.521 52.6083L156.519 52.311L156.465 52.9003L156.521 52.6083ZM163.319 52.5922L163.609 52.6573L163.69 52.295H163.319V52.5922ZM163.142 53.3797L162.852 53.3146L162.771 53.6769H163.142V53.3797ZM168.751 53.3797V53.6769H168.95L169.026 53.4923L168.751 53.3797ZM170.133 50.0048L170.408 50.1174L170.576 49.7075H170.133V50.0048ZM155.331 50.0048V49.7075H155.222L155.139 49.7785L155.331 50.0048ZM152.294 52.5922L152.101 52.3659L151.487 52.8894H152.294V52.5922ZM154.19 52.5922L154.412 52.7897L154.852 52.295H154.19V52.5922ZM154.062 52.7368L153.84 52.5394L153.838 52.5415L154.062 52.7368ZM153.515 53.3636L153.291 53.1683L153.269 53.1934L153.254 53.2227L153.515 53.3636ZM152.529 55.3194L161.368 58.0033L161.541 57.4345L152.702 54.7506L152.529 55.3194ZM161.221 57.5347L160.016 59.0614L160.482 59.4298L161.688 57.903L161.221 57.5347ZM160.194 59.5378L163.2 60.1003L163.309 59.5159L160.304 58.9535L160.194 59.5378ZM163.252 59.5109C160.747 59.5269 158.385 59.5269 155.91 59.5269V60.1214C158.385 60.1214 160.748 60.1214 163.256 60.1053L163.252 59.5109ZM156.2 59.8893L156.377 59.1018L155.797 58.9716L155.62 59.7591L156.2 59.8893ZM156.349 59.1766L156.992 57.9712L156.467 57.6915L155.824 58.8968L156.349 59.1766ZM156.73 57.5341H151.121V58.1286H156.73V57.5341ZM150.858 57.6922L150.151 59.026L150.676 59.3045L151.383 57.9706L150.858 57.6922ZM150.123 59.102L149.416 62.3484L149.997 62.4749L150.704 59.2285L150.123 59.102ZM149.706 62.7089H164.235V62.1144H149.706V62.7089ZM164.479 62.5809L166.729 59.3346L166.24 58.996L163.99 62.2423L164.479 62.5809ZM166.763 59.2702L168.048 55.8631L167.492 55.6533L166.207 59.0603L166.763 59.2702ZM167.854 55.473L159.32 52.9659L159.153 53.5363L167.687 56.0434L167.854 55.473ZM159.479 53.4239L159.559 53.3114L159.075 52.9659L158.995 53.0784L159.479 53.4239ZM159.372 52.8466L156.576 52.3162L156.465 52.9003L159.262 53.4306L159.372 52.8466ZM156.523 52.9055C158.836 52.8894 161.036 52.8894 163.319 52.8894V52.295C161.037 52.295 158.834 52.295 156.519 52.311L156.523 52.9055ZM163.029 52.5271L162.852 53.3146L163.432 53.4448L163.609 52.6573L163.029 52.5271ZM163.142 53.6769H168.751V53.0825H163.142V53.6769ZM169.026 53.4923L170.408 50.1174L169.858 49.8921L168.476 53.267L169.026 53.4923ZM170.133 49.7075H155.331V50.302H170.133V49.7075ZM155.139 49.7785L152.101 52.3659L152.487 52.8185L155.524 50.231L155.139 49.7785ZM152.294 52.8894H154.19V52.295H152.294V52.8894ZM153.968 52.3947L153.84 52.5394L154.284 52.9343L154.412 52.7897L153.968 52.3947ZM153.838 52.5415L153.291 53.1683L153.739 53.5589L154.286 52.9322L153.838 52.5415ZM153.254 53.2227L152.354 54.8941L152.877 55.1759L153.777 53.5045L153.254 53.2227Z" fill="white"/>
<path d="M35.8987 12.6782L34.8018 23.3137H36.948L36.328 29.0369H27.6956L19.4924 36H50.7312L52.1143 22.5983H50.0158L52.0666 2.61504H28.2679L20.1124 9.57819H23.8325L10.4785 23.3137H12.577L0.272217 36H15.3431L28.3633 22.5983H26.2648L35.8987 12.6782ZM81.5117 9.4828H90.4779L91.1933 11.009C90.3349 12.6782 89.4287 14.3952 88.5225 16.0644L86.1379 17.5906H77.1239L81.5117 9.4828ZM96.3441 22.5983L102.067 18.8783C103.975 15.3013 105.883 11.7721 107.79 8.1951L105.215 2.61504H70.0654L61.9099 9.57819H66.3454C63.8653 14.1567 61.433 18.7352 58.953 23.3137H61.0515C58.8099 27.5107 56.5207 31.7553 54.2791 36H69.35L75.5501 24.4583H95.6288L98.4426 22.5983H96.3441ZM126.082 9.4828H135.096L135.811 11.009L135.191 12.2013H150.262L155.413 2.61504H114.683L106.48 9.57819H110.963L103.571 23.3137H105.669L101.806 30.5153L104.429 36H141.105L144.11 30.4199L146.113 26.7476L147.353 24.4106H132.234L130.517 27.6061L128.18 29.1322H117.64L121.169 22.5983H119.023L119.595 21.5491H130.803L134.476 14.6813H123.316L126.082 9.4828ZM176.514 2.61504H161.443L153.24 9.57819H161.109L160.728 17.7337L155.005 23.3137H157.151L144.226 36H159.297L172.27 23.3137H173.605L172.89 36H188.008L188.771 22.5983H186.625L186.911 17.7337L202.459 2.61504H187.341L175.99 13.6321L176.514 2.61504ZM171.507 22.5983H170.839L171.554 21.8829L171.507 22.5983Z" fill="url(#paint1_linear_3_43)"/>
<path d="M35.8987 12.6782L36.7762 12.7687L37.037 10.2401L35.266 12.0637L35.8987 12.6782ZM34.8018 23.3137L33.9244 23.2232L33.8241 24.1958H34.8018V23.3137ZM36.948 23.3137L37.8249 23.4087L37.9308 22.4316H36.948V23.3137ZM36.328 29.0369V29.9189H37.1197L37.2049 29.1319L36.328 29.0369ZM27.6956 29.0369V28.1548H27.3717L27.1248 28.3644L27.6956 29.0369ZM19.4924 36L18.9216 35.3275L17.0902 36.8821H19.4924V36ZM50.7312 36V36.8821H51.5269L51.6086 36.0906L50.7312 36ZM52.1143 22.5983L52.9917 22.6889L53.0921 21.7162H52.1143V22.5983ZM50.0158 22.5983L49.1383 22.5083L49.0386 23.4804H50.0158V22.5983ZM52.0666 2.61504L52.9441 2.70509L53.0438 1.73296H52.0666V2.61504ZM28.2679 2.61504V1.73296H27.9426L27.6951 1.94421L28.2679 2.61504ZM20.1124 9.57819L19.5397 8.90736L17.7209 10.4603H20.1124V9.57819ZM23.8325 9.57819L24.4649 10.1931L25.9203 8.69611H23.8325V9.57819ZM10.4785 23.3137L9.84603 22.6988L8.39066 24.1958H10.4785V23.3137ZM12.577 23.3137L13.2101 23.9278L14.6613 22.4316H12.577V23.3137ZM0.272217 36L-0.360953 35.3859L-1.81216 36.8821H0.272217V36ZM15.3431 36V36.8821H15.716L15.9758 36.6147L15.3431 36ZM28.3633 22.5983L28.9959 23.213L30.4501 21.7162H28.3633V22.5983ZM26.2648 22.5983L25.632 21.9838L24.1786 23.4804H26.2648V22.5983ZM35.0213 12.5877L33.9244 23.2232L35.6792 23.4042L36.7762 12.7687L35.0213 12.5877ZM34.8018 24.1958H36.948V22.4316H34.8018V24.1958ZM36.071 23.2187L35.451 28.9418L37.2049 29.1319L37.8249 23.4087L36.071 23.2187ZM36.328 28.1548H27.6956V29.9189H36.328V28.1548ZM27.1248 28.3644L18.9216 35.3275L20.0632 36.6725L28.2664 29.7093L27.1248 28.3644ZM19.4924 36.8821H50.7312V35.1179H19.4924V36.8821ZM51.6086 36.0906L52.9917 22.6889L51.2369 22.5078L49.8538 35.9094L51.6086 36.0906ZM52.1143 21.7162H50.0158V23.4804H52.1143V21.7162ZM50.8933 22.6884L52.9441 2.70509L51.1891 2.52499L49.1383 22.5083L50.8933 22.6884ZM52.0666 1.73296H28.2679V3.49711H52.0666V1.73296ZM27.6951 1.94421L19.5397 8.90736L20.6852 10.249L28.8406 3.28587L27.6951 1.94421ZM20.1124 10.4603H23.8325V8.69611H20.1124V10.4603ZM23.2 8.96331L9.84603 22.6988L11.1109 23.9286L24.4649 10.1931L23.2 8.96331ZM10.4785 24.1958H12.577V22.4316H10.4785V24.1958ZM11.9438 22.6996L-0.360953 35.3859L0.905387 36.6141L13.2101 23.9278L11.9438 22.6996ZM0.272217 36.8821H15.3431V35.1179H0.272217V36.8821ZM15.9758 36.6147L28.9959 23.213L27.7306 21.9837L14.7105 35.3853L15.9758 36.6147ZM28.3633 21.7162H26.2648V23.4804H28.3633V21.7162ZM26.8976 23.2129L36.5315 13.2927L35.266 12.0637L25.632 21.9838L26.8976 23.2129ZM81.5117 9.4828V8.60073H80.9861L80.7359 9.06298L81.5117 9.4828ZM90.4779 9.4828L91.2766 9.10842L91.0386 8.60073H90.4779V9.4828ZM91.1933 11.009L91.9777 11.4124L92.1759 11.027L91.992 10.6346L91.1933 11.009ZM88.5225 16.0644L88.998 16.8074L89.1894 16.6849L89.2977 16.4852L88.5225 16.0644ZM86.1379 17.5906V18.4727H86.396L86.6134 18.3335L86.1379 17.5906ZM77.1239 17.5906L76.3482 17.1708L75.6436 18.4727H77.1239V17.5906ZM96.3441 22.5983L95.8634 21.8588L93.3686 23.4804H96.3441V22.5983ZM102.067 18.8783L102.548 19.6179L102.739 19.494L102.846 19.2934L102.067 18.8783ZM107.79 8.1951L108.569 8.61019L108.775 8.22344L108.591 7.82546L107.79 8.1951ZM105.215 2.61504L106.016 2.2454L105.779 1.73296H105.215V2.61504ZM70.0654 2.61504V1.73296H69.7401L69.4927 1.94421L70.0654 2.61504ZM61.9099 9.57819L61.3372 8.90736L59.5184 10.4603H61.9099V9.57819ZM66.3454 9.57819L67.121 9.99831L67.8263 8.69611H66.3454V9.57819ZM58.953 23.3137L58.1774 22.8936L57.472 24.1958H58.953V23.3137ZM61.0515 23.3137L61.8295 23.7293L62.5226 22.4316H61.0515V23.3137ZM54.2791 36L53.4991 35.5881L52.8158 36.8821H54.2791V36ZM69.35 36V36.8821H69.8775L70.1271 36.4174L69.35 36ZM75.5501 24.4583V23.5763H75.0226L74.773 24.0409L75.5501 24.4583ZM95.6288 24.4583V25.3404H95.8939L96.1152 25.1942L95.6288 24.4583ZM98.4426 22.5983L98.929 23.3342L101.377 21.7162H98.4426V22.5983ZM81.5117 10.3649H90.4779V8.60073H81.5117V10.3649ZM89.6792 9.85718L90.3946 11.3834L91.992 10.6346L91.2766 9.10842L89.6792 9.85718ZM90.4089 10.6056C89.5533 12.2692 88.6502 13.9804 87.7473 15.6436L89.2977 16.4852C90.2072 14.81 91.1164 13.0872 91.9777 11.4124L90.4089 10.6056ZM88.047 15.3215L85.6624 16.8476L86.6134 18.3335L88.998 16.8074L88.047 15.3215ZM86.1379 16.7085H77.1239V18.4727H86.1379V16.7085ZM77.8997 18.0104L82.2874 9.90262L80.7359 9.06298L76.3482 17.1708L77.8997 18.0104ZM96.8249 23.3379L102.548 19.6179L101.587 18.1387L95.8634 21.8588L96.8249 23.3379ZM102.846 19.2934C103.799 17.5062 104.752 15.7307 105.706 13.9539C106.66 12.1776 107.614 10.3999 108.569 8.61019L107.012 7.78C106.059 9.56722 105.106 11.3427 104.152 13.1194C103.198 14.8958 102.244 16.6734 101.289 18.4632L102.846 19.2934ZM108.591 7.82546L106.016 2.2454L104.414 2.98468L106.99 8.56474L108.591 7.82546ZM105.215 1.73296H70.0654V3.49711H105.215V1.73296ZM69.4927 1.94421L61.3372 8.90736L62.4827 10.249L70.6382 3.28587L69.4927 1.94421ZM61.9099 10.4603H66.3454V8.69611H61.9099V10.4603ZM65.5698 9.15807C64.3288 11.4491 63.0998 13.74 61.8719 16.029C60.6437 18.3185 59.4164 20.6062 58.1774 22.8936L59.7286 23.7338C60.9696 21.4428 62.1985 19.1519 63.4265 16.8629C64.6547 14.5734 65.882 12.2857 67.121 9.99831L65.5698 9.15807ZM58.953 24.1958H61.0515V22.4316H58.953V24.1958ZM60.2734 22.8982C58.0342 27.0907 55.7419 31.3412 53.4991 35.5881L55.0591 36.4119C57.2995 32.1695 59.5856 27.9306 61.8295 23.7293L60.2734 22.8982ZM54.2791 36.8821H69.35V35.1179H54.2791V36.8821ZM70.1271 36.4174L76.3271 24.8758L74.773 24.0409L68.573 35.5826L70.1271 36.4174ZM75.5501 25.3404H95.6288V23.5763H75.5501V25.3404ZM96.1152 25.1942L98.929 23.3342L97.9562 21.8625L95.1423 23.7225L96.1152 25.1942ZM98.4426 21.7162H96.3441V23.4804H98.4426V21.7162ZM126.082 9.4828V8.60073H125.552L125.303 9.06845L126.082 9.4828ZM135.096 9.4828L135.894 9.10842L135.656 8.60073H135.096V9.4828ZM135.811 11.009L136.594 11.4159L136.795 11.0292L136.61 10.6346L135.811 11.009ZM135.191 12.2013L134.408 11.7943L133.738 13.0834H135.191V12.2013ZM150.262 12.2013V13.0834H150.789L151.039 12.6188L150.262 12.2013ZM155.413 2.61504L156.19 3.03254L156.888 1.73296H155.413V2.61504ZM114.683 2.61504V1.73296H114.359L114.112 1.94257L114.683 2.61504ZM106.48 9.57819L105.909 8.90572L104.078 10.4603H106.48V9.57819ZM110.963 9.57819L111.74 9.99622L112.44 8.69611H110.963V9.57819ZM103.571 23.3137L102.794 22.8957L102.094 24.1958H103.571V23.3137ZM105.669 23.3137L106.447 23.7307L107.143 22.4316H105.669V23.3137ZM101.806 30.5153L101.029 30.0984L100.817 30.4925L101.01 30.8959L101.806 30.5153ZM104.429 36L103.633 36.3806L103.873 36.8821H104.429V36ZM141.105 36V36.8821H141.632L141.882 36.4182L141.105 36ZM144.11 30.4199L143.335 29.9976L143.333 30.0018L144.11 30.4199ZM146.113 26.7476L146.887 27.17L146.892 27.161L146.113 26.7476ZM147.353 24.4106L148.132 24.8241L148.819 23.5286H147.353V24.4106ZM132.234 24.4106V23.5286H131.707L131.457 23.9931L132.234 24.4106ZM130.517 27.6061L130.999 28.3446L131.188 28.2216L131.294 28.0236L130.517 27.6061ZM128.18 29.1322V30.0143H128.443L128.663 29.8708L128.18 29.1322ZM117.64 29.1322L116.864 28.713L116.161 30.0143H117.64V29.1322ZM121.169 22.5983L121.945 23.0175L122.648 21.7162H121.169V22.5983ZM119.023 22.5983L118.249 22.1759L117.537 23.4804H119.023V22.5983ZM119.595 21.5491V20.667H119.072L118.821 21.1267L119.595 21.5491ZM130.803 21.5491V22.4312H131.332L131.581 21.965L130.803 21.5491ZM134.476 14.6813L135.254 15.0973L135.948 13.7992H134.476V14.6813ZM123.316 14.6813L122.537 14.267L121.847 15.5634H123.316V14.6813ZM126.082 10.3649H135.096V8.60073H126.082V10.3649ZM134.297 9.85718L135.012 11.3834L136.61 10.6346L135.894 9.10842L134.297 9.85718ZM135.028 10.602L134.408 11.7943L135.974 12.6082L136.594 11.4159L135.028 10.602ZM135.191 13.0834H150.262V11.3192H135.191V13.0834ZM151.039 12.6188L156.19 3.03254L154.636 2.19754L149.485 11.7838L151.039 12.6188ZM155.413 1.73296H114.683V3.49711H155.413V1.73296ZM114.112 1.94257L105.909 8.90572L107.051 10.2507L115.254 3.28751L114.112 1.94257ZM106.48 10.4603H110.963V8.69611H106.48V10.4603ZM110.186 9.16016L102.794 22.8957L104.347 23.7317L111.74 9.99622L110.186 9.16016ZM103.571 24.1958H105.669V22.4316H103.571V24.1958ZM104.892 22.8968L101.029 30.0984L102.583 30.9323L106.447 23.7307L104.892 22.8968ZM101.01 30.8959L103.633 36.3806L105.225 35.6194L102.602 30.1348L101.01 30.8959ZM104.429 36.8821H141.105V35.1179H104.429V36.8821ZM141.882 36.4182L144.886 30.8381L143.333 30.0018L140.328 35.5818L141.882 36.4182ZM144.884 30.8423L146.887 27.17L145.338 26.3252L143.335 29.9976L144.884 30.8423ZM146.892 27.161L148.132 24.8241L146.574 23.9972L145.334 26.3342L146.892 27.161ZM147.353 23.5286H132.234V25.2927H147.353V23.5286ZM131.457 23.9931L129.74 27.1886L131.294 28.0236L133.011 24.8281L131.457 23.9931ZM130.035 26.8675L127.698 28.3937L128.663 29.8708L130.999 28.3446L130.035 26.8675ZM128.18 28.2502H117.64V30.0143H128.18V28.2502ZM118.416 29.5514L121.945 23.0175L120.393 22.1791L116.864 28.713L118.416 29.5514ZM121.169 21.7162H119.023V23.4804H121.169V21.7162ZM119.798 23.0207L120.37 21.9715L118.821 21.1267L118.249 22.1759L119.798 23.0207ZM119.595 22.4312H130.803V20.667H119.595V22.4312ZM131.581 21.965L135.254 15.0973L133.698 14.2654L130.025 21.1331L131.581 21.965ZM134.476 13.7992H123.316V15.5634H134.476V13.7992ZM124.094 15.0957L126.86 9.89715L125.303 9.06845L122.537 14.267L124.094 15.0957ZM176.514 2.61504L177.395 2.65699L177.439 1.73296H176.514V2.61504ZM161.443 2.61504V1.73296H161.119L160.873 1.94257L161.443 2.61504ZM153.24 9.57819L152.669 8.90572L150.838 10.4603H153.24V9.57819ZM161.109 9.57819L161.991 9.61941L162.034 8.69611H161.109V9.57819ZM160.728 17.7337L161.344 18.3652L161.593 18.1224L161.609 17.7749L160.728 17.7337ZM155.005 23.3137L154.389 22.6821L152.837 24.1958H155.005V23.3137ZM157.151 23.3137L157.769 23.9432L159.309 22.4316H157.151V23.3137ZM144.226 36L143.608 35.3705L142.068 36.8821H144.226V36ZM159.297 36V36.8821H159.657L159.914 36.6306L159.297 36ZM172.27 23.3137V22.4316H171.91L171.653 22.6831L172.27 23.3137ZM173.605 23.3137L174.486 23.3634L174.538 22.4316H173.605V23.3137ZM172.89 36L172.009 35.9503L171.956 36.8821H172.89V36ZM188.008 36V36.8821H188.841L188.889 36.0501L188.008 36ZM188.771 22.5983L189.652 22.6485L189.705 21.7162H188.771V22.5983ZM186.625 22.5983L185.745 22.5465L185.69 23.4804H186.625V22.5983ZM186.911 17.7337L186.296 17.1013L186.051 17.34L186.031 17.6819L186.911 17.7337ZM202.459 2.61504L203.074 3.24743L204.632 1.73296H202.459V2.61504ZM187.341 2.61504V1.73296H186.983L186.726 1.98208L187.341 2.61504ZM175.99 13.6321L175.109 13.5901L175.002 15.8195L176.604 14.265L175.99 13.6321ZM171.507 22.5983V23.4804H172.332L172.387 22.657L171.507 22.5983ZM170.839 22.5983L170.215 21.9746L168.709 23.4804H170.839V22.5983ZM171.554 21.8829L172.434 21.9416L172.59 19.5992L170.93 21.2592L171.554 21.8829ZM176.514 1.73296H161.443V3.49711H176.514V1.73296ZM160.873 1.94257L152.669 8.90572L153.811 10.2507L162.014 3.28751L160.873 1.94257ZM153.24 10.4603H161.109V8.69611H153.24V10.4603ZM160.228 9.53697L159.847 17.6924L161.609 17.7749L161.991 9.61941L160.228 9.53697ZM160.112 17.1021L154.389 22.6821L155.621 23.9453L161.344 18.3652L160.112 17.1021ZM155.005 24.1958H157.151V22.4316H155.005V24.1958ZM156.533 22.6842L143.608 35.3705L144.844 36.6295L157.769 23.9432L156.533 22.6842ZM144.226 36.8821H159.297V35.1179H144.226V36.8821ZM159.914 36.6306L172.886 23.9444L171.653 22.6831L158.68 35.3694L159.914 36.6306ZM172.27 24.1958H173.605V22.4316H172.27V24.1958ZM172.724 23.2641L172.009 35.9503L173.77 36.0497L174.486 23.3634L172.724 23.2641ZM172.89 36.8821H188.008V35.1179H172.89V36.8821ZM188.889 36.0501L189.652 22.6485L187.891 22.5482L187.128 35.9499L188.889 36.0501ZM188.771 21.7162H186.625V23.4804H188.771V21.7162ZM187.506 22.6501L187.792 17.7855L186.031 17.6819L185.745 22.5465L187.506 22.6501ZM187.526 18.366L203.074 3.24743L201.844 1.98265L186.296 17.1013L187.526 18.366ZM202.459 1.73296H187.341V3.49711H202.459V1.73296ZM186.726 1.98208L175.375 12.9991L176.604 14.265L187.955 3.248L186.726 1.98208ZM176.871 13.674L177.395 2.65699L175.633 2.57308L175.109 13.5901L176.871 13.674ZM171.507 21.7162H170.839V23.4804H171.507V21.7162ZM171.463 23.222L172.178 22.5067L170.93 21.2592L170.215 21.9746L171.463 23.222ZM170.674 21.8243L170.626 22.5396L172.387 22.657L172.434 21.9416L170.674 21.8243Z" fill="white"/>
<defs>
<linearGradient id="paint0_linear_3_43" x1="94.1829" y1="45.8651" x2="101.205" y2="80.1641" gradientUnits="userSpaceOnUse">
<stop offset="0.0179064" stop-color="#EE0979"/>
<stop offset="1" stop-color="#FF6A00"/>
</linearGradient>
<linearGradient id="paint1_linear_3_43" x1="91.0722" y1="-12.0349" x2="122.639" y2="70.4864" gradientUnits="userSpaceOnUse">
<stop offset="0.0179064" stop-color="#EE0979"/>
<stop offset="1" stop-color="#FF6A00"/>
</linearGradient>
</defs>
</svg>
